<svg width="1176" height="912" viewBox="0 0 1176 912" fill="none" xmlns="http://www.w3.org/2000/svg">
<path d="M1147.09 793.059H28.9192V793.615H1147.09V793.059Z" fill="#EBEBEB"/>
<path d="M1035.04 829.018H960.974V829.575H1035.04V829.018Z" fill="#EBEBEB"/>
<path d="M769.638 835.1H750.2V835.656H769.638V835.1Z" fill="#EBEBEB"/>
<rect x="431" y="634" width="593" height="187" fill="#2D2E2E"/>
<path d="M242.831 812.036H146.239V812.593H242.831V812.036Z" fill="#EBEBEB"/>
<path d="M958.733 808.276H915.823V808.832H958.733V808.276Z" fill="#EBEBEB"/>
<path d="M276.898 812.036H262.745V812.593H276.898V812.036Z" fill="#EBEBEB"/>
<path d="M532.43 821.457H322.933V822.014H532.43V821.457Z" fill="#EBEBEB"/>
<path d="M558.931 693.38H127.114C123.732 693.373 120.491 692.025 118.103 689.633C115.714 687.241 114.373 683.999 114.373 680.62V73.9954C114.401 70.636 115.756 67.4237 118.142 65.0571C120.528 62.6905 123.752 61.3609 127.114 61.3574H558.931C562.318 61.3574 565.566 62.7018 567.96 65.0948C570.355 67.4878 571.7 70.7334 571.7 74.1176V680.62C571.7 684.004 570.355 687.25 567.96 689.643C565.566 692.036 562.318 693.38 558.931 693.38ZM127.114 61.7918C123.872 61.7918 120.762 63.079 118.469 65.3701C116.177 67.6613 114.889 70.7688 114.889 74.009V680.62C114.889 683.86 116.177 686.968 118.469 689.259C120.762 691.55 123.872 692.837 127.114 692.837H558.931C562.174 692.837 565.283 691.55 567.576 689.259C569.869 686.968 571.157 683.86 571.157 680.62V73.9954C571.157 70.7552 569.869 67.6477 567.576 65.3566C565.283 63.0654 562.174 61.7782 558.931 61.7782L127.114 61.7918Z" fill="#EBEBEB"/>
<path d="M1042.68 693.38H610.834C607.449 693.377 604.203 692.031 601.809 689.639C599.415 687.246 598.069 684.003 598.065 680.62V73.9954C598.101 70.6335 599.462 67.4213 601.852 65.0554C604.242 62.6895 607.47 61.3608 610.834 61.3574H1042.68C1046.04 61.3573 1049.27 62.6853 1051.66 65.0523C1054.05 67.4194 1055.4 70.6337 1055.43 73.9954V680.62C1055.44 682.295 1055.11 683.954 1054.47 685.502C1053.83 687.05 1052.89 688.457 1051.7 689.642C1050.52 690.827 1049.11 691.767 1047.56 692.408C1046.01 693.05 1044.35 693.38 1042.68 693.38ZM610.834 61.7918C607.592 61.7918 604.482 63.079 602.189 65.3701C599.897 67.6613 598.609 70.7688 598.609 74.009V680.62C598.609 683.86 599.897 686.968 602.189 689.259C604.482 691.55 607.592 692.837 610.834 692.837H1042.68C1045.92 692.837 1049.03 691.55 1051.32 689.259C1053.62 686.968 1054.9 683.86 1054.9 680.62V73.9954C1054.9 70.7552 1053.62 67.6477 1051.32 65.3566C1049.03 63.0654 1045.92 61.7782 1042.68 61.7782L610.834 61.7918Z" fill="#EBEBEB"/>
<path d="M500.265 167.131H157.255V793.059H500.265V167.131Z" fill="#4A4B4B"/>
<path d="M482.62 182.321H174.9V793.045H482.62V182.321Z" fill="#AADCD1"/>
<path d="M467.895 455.783H406.634C405.859 455.779 405.09 455.929 404.373 456.222C403.655 456.516 403.003 456.948 402.453 457.494C401.903 458.04 401.466 458.689 401.167 459.404C400.868 460.119 400.713 460.886 400.712 461.661C400.712 463.23 401.336 464.736 402.446 465.846C403.557 466.956 405.063 467.579 406.634 467.579H467.895C469.466 467.579 470.972 466.956 472.083 465.846C473.194 464.736 473.818 463.23 473.818 461.661C473.803 460.099 473.173 458.606 472.065 457.506C470.956 456.405 469.458 455.786 467.895 455.783Z" fill="#EBEBEB"/>
<path d="M292.207 216.163H220.907V731.891H292.207V216.163Z" fill="#D1D3D4"/>
<path d="M292.207 289.086L220.907 324.706V412.072L292.207 376.452V289.086Z" fill="#BCBEC0"/>
<path d="M292.207 394.276L220.907 429.909V463.357L292.207 427.738V394.276Z" fill="#F5F5F5"/>
<path d="M292.207 576.068L220.907 611.674V645.122L292.207 609.502V576.068Z" fill="#F5F5F5"/>
<path d="M1018.77 132.109H551.529V627.516H1018.77V132.109Z" fill="#5D5E5E"/>
<path d="M1015.14 135.977H555.155V623.701H1015.14V135.977Z" fill="#AADCD1"/>
<path d="M614.015 382.695L607.996 500.628L758.441 508.296L764.46 390.364L614.015 382.695Z" fill="#BCBEC0"/>
<path d="M914.21 242.243L764.589 259.728L778.314 377.015L927.935 359.529L914.21 242.243Z" fill="#F0F0F0"/>
<path d="M793.096 193.235H595.647V348.027H793.096V193.235Z" fill="#E6E6E6"/>
<path d="M622.122 211.575C609.462 211.154 608.117 218.579 613.061 223.072C618.006 227.566 666.145 254.511 667.803 262.439C669.46 270.366 672.57 282.19 677.447 272.09C682.323 261.991 691.492 264.692 694.684 256.154C696.926 249.991 673.779 249.448 666.974 244.615C646.952 230.593 629.484 211.846 622.122 211.575Z" fill="white"/>
<path d="M758.907 329.647C764.585 331.167 765.617 328.371 760.646 323.905C755.674 319.439 715.915 296.62 713.212 278.81C711.99 270.787 708.458 259.032 703.554 269.131C698.651 279.231 689.536 276.543 686.331 285.081C684.103 291.231 707.249 291.787 714.041 296.593C734.008 310.656 751.721 327.747 758.907 329.647Z" fill="white"/>
<path d="M698.189 272.145C702.413 267.475 696.559 260.742 687.811 264.679C679.063 268.615 686.847 284.837 698.189 272.145Z" fill="white"/>
<path d="M710.862 272.783C724.772 289.371 763.716 316.656 769.271 318.651C774.827 320.647 779.309 329.823 763.118 319.181C746.926 308.538 713.294 283.086 710.917 278.796C708.54 274.507 710.862 272.783 710.862 272.783Z" fill="white"/>
<path d="M965.47 396H768.021V550.792H965.47V396Z" fill="#E6E6E6"/>
<path d="M886.374 418.928C869.313 418.466 877.925 460.547 881.144 484.086C884.364 507.624 889.172 535.48 914.872 534.312C940.572 533.145 946.576 516.095 941.346 493.072C933.318 457.683 901.696 419.294 886.374 418.928Z" fill="#D1D3D4"/>
<path d="M847.131 418.928C864.165 418.466 855.553 460.547 852.361 484.086C849.169 507.624 844.333 535.48 818.633 534.312C792.933 533.145 786.93 516.095 792.159 493.072C800.16 457.683 831.769 419.294 847.131 418.928Z" fill="white"/>
<path d="M884.404 452.796C883.582 452.792 882.774 452.582 882.054 452.185C881.226 451.724 861.937 440.593 861.937 413.213C862.003 411.981 862.539 410.82 863.435 409.972C864.33 409.123 865.518 408.649 866.753 408.649C867.987 408.649 869.175 409.123 870.071 409.972C870.967 410.82 871.502 411.981 871.568 413.213C871.568 434.783 886.17 443.457 886.795 443.81C887.704 444.339 888.413 445.152 888.814 446.124C889.215 447.096 889.285 448.173 889.013 449.188C888.741 450.204 888.143 451.102 887.31 451.744C886.477 452.386 885.456 452.737 884.404 452.742V452.796Z" fill="white"/>
<path d="M849.101 452.796C848.055 452.778 847.043 452.42 846.218 451.776C845.393 451.132 844.8 450.238 844.529 449.228C844.257 448.218 844.322 447.147 844.713 446.177C845.104 445.207 845.8 444.39 846.697 443.851C847.389 443.457 861.937 434.783 861.937 413.253C862.003 412.021 862.539 410.861 863.435 410.012C864.33 409.163 865.518 408.69 866.753 408.69C867.987 408.69 869.175 409.163 870.071 410.012C870.967 410.861 871.502 412.021 871.568 413.253C871.568 440.633 852.266 451.765 851.437 452.24C850.718 452.619 849.914 452.811 849.101 452.796Z" fill="white"/>
<path d="M904.223 508.683C904.204 511.121 904.91 513.51 906.251 515.546C907.592 517.583 909.508 519.176 911.756 520.123C914.003 521.07 916.482 521.329 918.877 520.867C921.273 520.405 923.477 519.243 925.211 517.527C926.944 515.812 928.129 513.621 928.615 511.232C929.102 508.843 928.867 506.363 927.942 504.108C927.016 501.852 925.441 499.921 923.417 498.561C921.392 497.201 919.009 496.471 916.57 496.466C913.314 496.459 910.188 497.74 907.874 500.029C905.561 502.318 904.248 505.43 904.223 508.683Z" fill="#F5F5F5"/>
<path d="M838.166 460.724C836.074 467.213 837.025 473.28 840.258 474.299C843.491 475.317 847.797 470.918 849.875 464.457C851.953 457.995 851.016 451.9 847.77 450.882C844.523 449.864 840.244 454.262 838.166 460.724Z" fill="#F5F5F5"/>
<path d="M1051.2 517.425L1102.58 215.634H888.547L825.9 513.041L1051.2 517.425Z" fill="#5D5E5E"/>
<path d="M770.453 467.946H657.927V539.688H770.453V467.946Z" fill="#A7A9AC"/>
<path d="M681.753 441.027H746.627C752.946 441.027 759.006 443.536 763.474 448.001C767.943 452.466 770.453 458.522 770.453 464.837V467.932H657.927V464.837C657.927 458.522 660.438 452.466 664.906 448.001C669.374 443.536 675.434 441.027 681.753 441.027Z" fill="#D1D3D4"/>
<path d="M1023.62 552.204H618.943V788.348H1023.62V552.204Z" fill="#5D5E5E"/>
<path d="M908.461 766.71H879.745V791.023H908.461V766.71Z" fill="#F9B499"/>
<path d="M817.94 772.059H785.816V796.86H817.94V772.059Z" fill="#F9B499"/>
<path d="M1040.9 539.688H601.665C596.646 539.688 592.578 543.754 592.578 548.769V551.145C592.578 556.16 596.646 560.226 601.665 560.226H1040.9C1045.92 560.226 1049.99 556.16 1049.99 551.145V548.769C1049.99 543.754 1045.92 539.688 1040.9 539.688Z" fill="#BCBEC0"/>
<path d="M774.405 773.498C774.405 773.498 806.001 778.751 823.102 773.498L836.034 618.407L868.96 769.615C868.96 769.615 904.671 776.973 920.455 761.796L889.539 498.706C889.539 498.706 803.569 497.878 784.05 501.231L770.466 517.425L774.405 773.498Z" fill="#5B47CD"/>
<path opacity="0.2" d="M774.405 773.498C774.405 773.498 806.001 778.751 823.102 773.498L836.034 618.407L868.96 769.615C868.96 769.615 904.671 776.973 920.455 761.796L889.539 498.706C889.539 498.706 803.569 497.878 784.05 501.231L770.466 517.425L774.405 773.498Z" fill="black"/>
<path opacity="0.2" d="M828.495 703.873L806.639 521.471L836.034 618.421L828.495 703.873Z" fill="black"/>
<path d="M877.314 806.593C877.314 806.593 865.632 818.267 873.904 824.593H911.856C911.856 824.593 917.697 819.719 908.46 806.593V783.19H879.745L877.314 806.593Z" fill="#5B47CD"/>
<path d="M773.156 803.919L785.816 784.466C785.816 784.466 805.77 787.629 817.927 784.466C817.927 784.466 824.257 811.941 817.927 819.76H757.589C757.589 819.76 743.014 807.081 773.156 803.919Z" fill="#5B47CD"/>
<path d="M599.56 72.3665C598.282 70.6051 596.609 69.168 594.674 68.1707C592.74 67.1734 590.598 66.6438 588.421 66.6244L531.642 66.095C529.418 66.0782 527.223 66.5946 525.24 67.6008C523.257 68.6069 521.544 70.0736 520.246 71.8778L503.402 95.5656L616.24 95.2262L599.56 72.3665ZM558.931 83.7828C557.692 83.7855 556.479 83.4204 555.447 82.7338C554.416 82.0472 553.611 81.07 553.135 79.9259C552.66 78.7819 552.534 77.5225 552.776 76.3073C553.017 75.0922 553.613 73.9759 554.49 73.0999C555.367 72.2239 556.484 71.6276 557.7 71.3865C558.916 71.1455 560.176 71.2706 561.32 71.7459C562.465 72.2212 563.443 73.0254 564.13 74.0566C564.817 75.0878 565.182 76.2996 565.18 77.5384C565.18 79.1945 564.522 80.7828 563.35 81.9539C562.178 83.1249 560.589 83.7828 558.931 83.7828Z" fill="#5B47CD"/>
<path d="M554.924 484.303C561.181 484.303 566.253 479.234 566.253 472.982C566.253 466.729 561.181 461.661 554.924 461.661C548.668 461.661 543.596 466.729 543.596 472.982C543.596 479.234 548.668 484.303 554.924 484.303Z" fill="#2166BF"/>
<path d="M558.32 508.072C563.497 508.072 567.693 503.879 567.693 498.706C567.693 493.533 563.497 489.339 558.32 489.339C553.144 489.339 548.948 493.533 548.948 498.706C548.948 503.879 553.144 508.072 558.32 508.072Z" fill="#2166BF"/>
<path d="M548.948 625.778C555.174 625.778 560.222 620.734 560.222 614.511C560.222 608.289 555.174 603.244 548.948 603.244C542.721 603.244 537.673 608.289 537.673 614.511C537.673 620.734 542.721 625.778 548.948 625.778Z" fill="#2166BF"/>
<path d="M418.18 691.602H139.556C116.81 691.602 98.3713 710.029 98.3713 732.76V784.059C98.3713 806.79 116.81 825.217 139.556 825.217H418.18C440.926 825.217 459.365 806.79 459.365 784.059V732.76C459.365 710.029 440.926 691.602 418.18 691.602Z" fill="#5D5E5E"/>
<path opacity="0.2" d="M146.185 697.778H432.796V788.348H179.451C170.628 788.348 162.167 784.846 155.928 778.611C149.69 772.377 146.185 763.921 146.185 755.104V697.778Z" fill="black"/>
<path d="M176.788 429.149C176.788 429.149 73.4185 427.792 73.4185 567.244C73.4185 567.244 77.6836 676.33 182.371 716.851C182.371 716.851 246.512 742.561 316.684 733.995C316.684 733.995 407.911 717.136 414.146 754.357C414.146 754.357 422.635 800.647 455.426 780.149L465.111 769.507V625.724L298.754 595.222L312.338 534.516C312.338 534.516 279.371 429.747 176.788 429.149Z" fill="#5D5E5E"/>
<path d="M331.056 618.407C333.192 615.229 335.552 612.208 338.119 609.366C341.184 605.967 344.528 602.829 348.116 599.986C348.116 599.986 432.171 576.108 466.496 609.774C466.496 609.774 494.247 639.937 485.513 707.213L445.741 703.873L331.056 618.407Z" fill="black"/>
<path opacity="0.2" d="M331.056 618.407C333.192 615.229 335.552 612.208 338.119 609.366C341.184 605.967 344.528 602.829 348.116 599.986C348.116 599.986 432.171 576.108 466.496 609.774C466.496 609.774 494.247 639.937 485.513 707.213L445.741 703.873L331.056 618.407Z" fill="black"/>
<path d="M512.924 632.81C486.831 632.81 465.654 611.091 465.382 610.833L465.287 610.724C426.371 560.986 395.767 575.145 395.468 575.294L394.11 572.579C395.468 571.928 427.226 557.213 467.637 608.81C469.091 610.276 500.835 641.851 533.15 624.679C538.956 621.469 544.064 617.135 548.175 611.93C552.287 606.726 555.32 600.755 557.098 594.367C561.526 579.136 565.329 551.634 558.388 507.136C558.293 506.783 547.263 460.127 557.763 420.733L560.724 421.534C550.428 460.154 561.281 506.077 561.39 506.538C568.453 551.715 564.555 579.692 560.032 595.222C558.142 602.004 554.917 608.342 550.546 613.864C546.175 619.386 540.746 623.981 534.576 627.38C527.922 630.958 520.481 632.824 512.924 632.81Z" fill="#5B47CD"/>
<path d="M512.761 631.928C486.953 631.928 465.803 609.923 465.545 609.638C444.885 583.249 426.602 574.941 414.906 572.606C402.26 570.081 394.368 573.828 394.286 573.869L393.947 573.176C394.273 573.013 402.097 569.294 414.988 571.819C426.832 574.154 445.319 582.529 466.116 609.109C466.428 609.434 499.545 643.887 533.232 625.982C544.981 619.724 554.693 607.52 558.592 594.095C562.667 579.842 566.131 553.072 558.863 506.498C558.768 506.063 548.459 460.072 558.863 420.977L559.611 421.181C549.219 460.099 559.488 505.9 559.611 506.362C566.905 553.113 563.468 579.991 559.312 594.326C555.373 607.9 545.511 620.321 533.585 626.661C527.189 630.116 520.032 631.926 512.761 631.928Z" fill="black"/>
<path opacity="0.2" d="M186.473 583.643C186.473 583.643 148.82 496.113 186.473 472.955C186.473 472.955 203.629 457.1 241.826 526.181L186.473 583.643Z" fill="black"/>
<path d="M348.116 599.932C318.6 623.742 291.134 691.548 291.134 691.548C213.437 650.661 182.371 532.643 182.371 532.643C191.16 490.71 215.135 483.977 215.135 483.977C215.135 483.977 234.858 507.76 249.854 506.769C251.784 506.675 253.608 505.859 254.964 504.484C256.32 503.108 257.11 501.274 257.175 499.344C257.352 494.172 255.151 485.688 242.967 475.697C260.626 475.181 275.078 483.977 275.078 483.977C288.214 509.24 313.411 581.308 313.411 581.308C328.434 580.778 329.996 591.638 329.996 591.638C336.204 599.471 348.116 599.932 348.116 599.932Z" fill="#5B47CD"/>
<path d="M208.927 487.113C208.927 487.113 235.442 515.389 254.255 512.701C256.399 512.437 258.4 511.485 259.955 509.986C261.511 508.488 262.537 506.525 262.88 504.394C263.587 499.045 261.223 490.14 248.93 475.887C247.979 475.792 246.961 475.737 245.901 475.71C244.841 475.683 243.891 475.71 242.967 475.71C252.964 484.371 257.107 491.348 257.053 498.787C257.034 499.865 256.801 500.928 256.367 501.915C255.933 502.903 255.308 503.794 254.527 504.538C253.746 505.281 252.825 505.863 251.818 506.248C250.811 506.634 249.737 506.815 248.658 506.783C242.288 506.525 231.448 502.222 215.135 484.004C214.071 484.393 213.032 484.846 212.024 485.362C210.956 485.881 209.922 486.466 208.927 487.113Z" fill="black"/>
<path d="M275.078 484.032C275.078 484.032 311.278 508.982 338.024 540.475C338.577 541.128 338.965 541.904 339.154 542.738C339.343 543.572 339.328 544.44 339.111 545.267C337.358 552.054 331.151 569.62 312.351 578.335C312.419 578.335 292.886 523.032 275.078 484.032Z" fill="#5B47CD"/>
<path opacity="0.2" d="M275.078 484.032C275.078 484.032 311.278 508.982 338.024 540.475C338.577 541.128 338.965 541.904 339.154 542.738C339.343 543.572 339.328 544.44 339.111 545.267C337.358 552.054 331.151 569.62 312.351 578.335C312.419 578.335 292.886 523.032 275.078 484.032Z" fill="black"/>
<path d="M312.419 578.335L313.479 581.362C313.479 581.362 326.274 579.923 330.064 591.692C330.064 591.692 336.856 601.371 348.184 599.986C348.184 599.986 371.82 592.9 410.424 592.018C410.424 592.018 444.953 592.833 460.452 605.403C461.013 605.862 461.692 606.156 462.412 606.252C463.132 606.348 463.864 606.242 464.527 605.946C470.924 603.136 487.809 594.706 482.09 586.412C481.468 585.56 480.674 584.849 479.759 584.325C478.844 583.801 477.828 583.476 476.779 583.371C469.145 582.394 447.153 579.068 452.981 573.611C452.981 573.611 470.965 577.995 468.765 567.91L452.464 563.525C442.434 562.715 432.484 565.858 424.741 572.281C422.896 573.801 420.597 574.665 418.207 574.738C412.529 574.86 401.907 574.805 395.455 572.959C395.455 572.959 367.812 569.009 357.951 571.317L336.801 552.204C336.801 552.204 330.349 570.367 312.419 578.335Z" fill="#CE7F60"/>
<path d="M377.348 586.439C377.348 586.439 379.616 574.846 385.498 571.765C388.228 571.93 390.948 572.233 393.648 572.674C395.495 572.986 397.248 573.339 398.891 573.733C397.931 575.179 397.065 576.684 396.297 578.24C394.877 580.745 393.998 583.519 393.716 586.385L377.348 586.439Z" fill="#D1D3D4"/>
<path d="M558.32 503.145C560.773 503.145 562.762 501.157 562.762 498.706C562.762 496.254 560.773 494.267 558.32 494.267C555.867 494.267 553.878 496.254 553.878 498.706C553.878 501.157 555.867 503.145 558.32 503.145Z" fill="black"/>
<path d="M548.948 618.95C551.401 618.95 553.389 616.963 553.389 614.511C553.389 612.06 551.401 610.073 548.948 610.073C546.495 610.073 544.506 612.06 544.506 614.511C544.506 616.963 546.495 618.95 548.948 618.95Z" fill="black"/>
<path d="M291.134 691.602C291.134 691.602 308.494 702.842 371.426 698.905C371.426 698.905 373.422 705.462 388.16 704.158L500.699 789.326L524.416 758.321C524.416 758.321 468.031 657.421 412.081 638.634C412.081 638.634 370.217 622.222 331.056 618.407C331.056 618.407 312.243 640.656 291.134 691.602Z" fill="black"/>
<path d="M537.076 819.557C537.076 819.557 525.231 793.833 504.109 784.873L521.767 761.796L539.072 785.511L550.347 784.724C550.347 784.724 546.095 795.747 553.294 802.045L537.076 819.557Z" fill="#CE7F60"/>
<path d="M449.381 800.226C456.1 785.929 457.914 769.817 454.543 754.385C462.575 760.484 470.612 766.57 478.653 772.643L480.854 789.326C480.854 789.326 469.987 793.222 472.215 803.294L449.381 800.226Z" fill="#CE7F60"/>
<path d="M514.989 400.154H606.147V415.914C606.147 417.286 605.602 418.601 604.632 419.571C603.661 420.541 602.345 421.086 600.972 421.086H520.164C518.792 421.086 517.475 420.541 516.505 419.571C515.534 418.601 514.989 417.286 514.989 415.914V400.154Z" fill="#5B47CD"/>
<path opacity="0.2" d="M514.989 400.154H606.147V415.914C606.147 417.286 605.602 418.601 604.632 419.571C603.661 420.541 602.345 421.086 600.972 421.086H520.164C518.792 421.086 517.475 420.541 516.505 419.571C515.534 418.601 514.989 417.286 514.989 415.914V400.154Z" fill="white"/>
<path d="M458.387 90.7466H662.763C666.546 90.7466 670.174 92.2483 672.848 94.9213C675.523 97.5943 677.026 101.22 677.026 105V346.629C677.011 360.818 671.366 374.422 661.328 384.456C651.289 394.49 637.678 400.136 623.48 400.154H497.738C483.528 400.139 469.905 394.488 459.862 384.442C449.82 374.395 444.178 360.775 444.178 346.575V105C444.178 101.229 445.674 97.6119 448.337 94.9405C451 92.269 454.613 90.7609 458.387 90.7466Z" fill="#5B47CD"/>
<path opacity="0.2" d="M654.246 102.842H464.268C461.86 102.842 459.908 104.793 459.908 107.199V108.353C459.908 110.76 461.86 112.71 464.268 112.71H654.246C656.654 112.71 658.607 110.76 658.607 108.353V107.199C658.607 104.793 656.654 102.842 654.246 102.842Z" fill="black"/>
<path d="M1041.44 503.267L1092.83 201.475H878.794L814.327 494.389L1041.44 503.267Z" fill="#5D5E5E"/>
<path d="M881.864 273.597H1055.08" stroke="white" stroke-miterlimit="10"/>
<path d="M876.77 300.516H1049.99" stroke="white" stroke-miterlimit="10"/>
<path d="M870.943 330.407H1044.16" stroke="white" stroke-miterlimit="10"/>
<path d="M865.849 357.312H1039.07" stroke="white" stroke-miterlimit="10"/>
<path d="M859.424 384.231H1032.64" stroke="white" stroke-miterlimit="10"/>
<path d="M854.331 411.136H1027.55" stroke="white" stroke-miterlimit="10"/>
<path d="M848.517 441.027H1021.73" stroke="white" stroke-miterlimit="10"/>
<path d="M843.409 467.946H1016.63" stroke="white" stroke-miterlimit="10"/>
<path d="M693.679 503.267H622.189V539.688H693.679V503.267Z" fill="#D1D3D4"/>
<path d="M693.679 494.389H622.189V508.072H693.679V494.389Z" fill="#939598"/>
<path d="M671.103 484.303C671.103 484.303 659.598 474.217 651.693 484.303C651.693 484.303 629.334 480.706 628.669 494.389H690.514C690.514 494.389 690.188 480.801 671.103 484.303Z" fill="#E6E7E8"/>
<path d="M746.111 496.33V513.882H731.754V528.231H714.19V513.882H699.833V496.33H714.19V481.995H731.754V496.33H746.111Z" fill="#FF0202"/>
<path d="M756 294.692C755.905 294.489 755.647 294.557 755.606 294.787C754.519 301.873 754.519 333.258 766.473 384.231C766.473 384.231 781.415 476.946 784.023 501.231L821.255 498.977C821.255 498.977 794.441 359.063 791.371 285.19C791.371 285.19 789.578 297.774 772.789 304.805C772.789 304.805 766.337 307.072 762.547 301.751C762.588 301.751 757.793 298.683 756 294.692Z" fill="#E6E7E8"/>
<path d="M787.12 281.24L786.753 277.412C786.753 277.412 830.872 280.344 848.87 300.394C851.258 303.054 852.807 306.36 853.325 309.896C856.49 331.222 870.875 424.683 884.051 454.425L904.236 528.176C904.236 528.176 835.368 565.249 829.663 549.896L810.375 443.09C810.375 443.09 788.274 325.765 791.439 285.434C791.213 284.387 790.683 283.431 789.914 282.684C789.146 281.938 788.173 281.435 787.12 281.24Z" fill="#5B47CD"/>
<path opacity="0.7" d="M787.12 281.24L786.753 277.412C786.753 277.412 830.872 280.344 848.87 300.394C851.258 303.054 852.807 306.36 853.325 309.896C856.49 331.222 870.875 424.683 884.051 454.425L904.236 528.176C904.236 528.176 835.368 565.249 829.663 549.896L810.375 443.09C810.375 443.09 788.274 325.765 791.439 285.434C791.213 284.387 790.683 283.431 789.914 282.684C789.146 281.938 788.173 281.435 787.12 281.24Z" fill="white"/>
<path opacity="0.2" d="M838.098 467.946C838.098 467.946 873.415 461.063 883.032 452.118L884.024 454.48L899.767 512.009C899.767 512.009 856.748 538.588 853.081 521.511L838.098 467.946Z" fill="white"/>
<path d="M688.015 456.163C688.015 456.163 728.344 484.33 750.118 461.661C750.118 461.661 738.532 390.977 731.55 366.529C731.55 366.529 715.046 338.919 724.473 315.787C724.473 315.787 708.173 327.529 708.173 382.425V411.136L690.514 400.276C690.514 400.276 700.593 437.729 688.015 456.163Z" fill="#5B47CD"/>
<path opacity="0.7" d="M688.015 456.163C688.015 456.163 728.344 484.33 750.118 461.661C750.118 461.661 738.532 390.977 731.55 366.529C731.55 366.529 715.046 338.919 724.473 315.787C724.473 315.787 708.173 327.529 708.173 382.425V411.136L690.514 400.276C690.514 400.276 700.593 437.729 688.015 456.163Z" fill="white"/>
<path d="M688.015 456.163C688.015 456.163 677.95 448.452 678.792 421.099C678.792 421.099 682.473 395.308 690.514 400.276C690.514 400.276 701.639 436.357 688.015 456.163Z" fill="#5B47CD"/>
<path opacity="0.9" d="M688.015 456.163C688.015 456.163 677.95 448.452 678.792 421.099C678.792 421.099 682.473 395.308 690.514 400.276C690.514 400.276 701.639 436.357 688.015 456.163Z" fill="white"/>
<path d="M292.886 631.33C292.886 631.33 346.215 631.33 348.116 645.163C348.116 645.163 353.984 672.312 351.023 683.471C351.023 683.471 340.836 685.113 335.239 664.086C335.239 664.086 324.373 665.919 310.056 654.475L292.886 654.869V631.33Z" fill="#CE7F60"/>
<path d="M186.99 527.091C196.96 528.855 220.69 538.833 233.703 592.385C234.959 597.318 237.277 601.918 240.495 605.864L241.092 606.638C244.862 611.799 250.054 615.752 256.034 618.014C267.635 622.317 285.619 627.991 292.886 624.964V658.792C292.886 658.792 230.633 676.045 205.952 644.009C205.446 643.339 204.992 642.631 204.594 641.892C199.812 633.217 170.255 577.073 181.271 530.783C181.566 529.551 182.325 528.48 183.39 527.792C184.455 527.105 185.744 526.853 186.99 527.091Z" fill="#5B47CD"/>
<path opacity="0.2" d="M186.99 527.091C196.96 528.855 220.69 538.833 233.703 592.385C234.959 597.318 237.277 601.918 240.495 605.864L241.092 606.638C244.862 611.799 250.054 615.752 256.034 618.014C267.635 622.317 285.619 627.991 292.886 624.964V658.792C292.886 658.792 230.633 676.045 205.952 644.009C205.446 643.339 204.992 642.631 204.594 641.892C199.812 633.217 170.255 577.073 181.271 530.783C181.566 529.551 182.325 528.48 183.39 527.792C184.455 527.105 185.744 526.853 186.99 527.091Z" fill="black"/>
<path d="M251.959 506.511C236.773 510.136 215.135 484.032 215.135 484.032V461.158C222.402 461.158 219.21 448.303 219.21 448.303L242.994 455.579V475.751C256.578 486.937 257.759 496.235 257.053 501.095C256.852 502.407 256.258 503.627 255.348 504.594C254.439 505.561 253.257 506.23 251.959 506.511Z" fill="#CE7F60"/>
<path d="M242.967 475.751V462.176C236.938 460.459 231.269 457.668 226.232 453.937C226.232 453.937 227.794 463.127 242.967 475.751Z" fill="#CE7F60"/>
<path d="M261.956 458.783C272.348 449.714 269.179 429.096 254.879 412.731C240.578 396.367 220.562 390.452 210.17 399.521C199.779 408.589 202.948 429.207 217.248 445.572C231.548 461.937 251.565 467.852 261.956 458.783Z" fill="#CE7F60"/>
<path d="M221.125 440.742L219.169 416.742C219.169 416.742 249.704 412.086 245.045 393.448C245.045 393.448 246.078 381.543 222.252 382.588C222.252 382.588 196.349 371.199 190.141 403.303C190.141 403.303 161.955 430.452 187.424 452.891C189.129 454.37 191.054 455.575 193.129 456.461C200.342 459.611 219.155 466.344 220.296 456.611L221.125 440.742Z" fill="black"/>
<path d="M225.595 454.72C228.512 451.805 228.001 446.566 224.452 443.019C220.903 439.473 215.661 438.962 212.743 441.877C209.826 444.793 210.337 450.032 213.886 453.578C217.435 457.125 222.677 457.636 225.595 454.72Z" fill="#CE7F60"/>
<path d="M537.076 819.557C537.076 819.557 541.151 833.281 555.06 830.552C558.844 829.749 562.238 827.674 564.677 824.674L603.023 778.615C603.699 777.814 604.055 776.792 604.022 775.744C603.99 774.697 603.571 773.699 602.847 772.941C599.383 769.317 591.695 765.529 578.396 779.186C578.396 779.186 556.269 779.606 550.442 784.615C550.442 784.615 545.932 795.787 553.389 801.937L537.076 819.557Z" fill="black"/>
<path d="M472.201 803.294L449.381 800.226C449.381 800.226 437.156 822.584 452.016 825.217H522.65C522.65 825.217 529.442 808.928 504.122 807.244C504.122 807.244 489.072 783.258 480.854 789.326C480.854 789.326 469.566 794.973 472.201 803.294Z" fill="black"/>
<path d="M554.924 478.955C558.225 478.955 560.901 476.281 560.901 472.982C560.901 469.683 558.225 467.009 554.924 467.009C551.623 467.009 548.948 469.683 548.948 472.982C548.948 476.281 551.623 478.955 554.924 478.955Z" fill="black"/>
<path opacity="0.2" d="M602.616 385.697H520.504C487.048 385.697 459.908 356.335 459.908 322.887V169.615C459.908 165.342 461.607 161.243 464.631 158.222C467.654 155.2 471.755 153.502 476.032 153.502H647.088C649.206 153.5 651.303 153.916 653.26 154.725C655.217 155.534 656.995 156.721 658.493 158.218C659.991 159.714 661.178 161.491 661.988 163.447C662.797 165.403 663.213 167.499 663.211 169.615V325.14C662.206 358.738 635.787 383.891 602.616 385.697Z" fill="white"/>
<path d="M575.286 215.579C575.286 215.579 653.336 194.891 663.212 217.249C663.212 217.249 654.138 235.629 575.286 215.579Z" fill="#A90303"/>
<path opacity="0.2" d="M575.286 215.579C575.286 215.579 653.336 194.891 663.212 217.249C663.212 217.249 654.138 235.629 575.286 215.579Z" fill="#A90303"/>
<path d="M529.781 163.33H480.84C474.734 163.33 469.783 168.277 469.783 174.38V177.272C469.783 183.374 474.734 188.321 480.84 188.321H529.781C535.888 188.321 540.838 183.374 540.838 177.272V174.38C540.838 168.277 535.888 163.33 529.781 163.33Z" fill="white"/>
<path d="M495.171 177.57L493.663 182.131H491.721L496.651 167.647H498.906L503.851 182.131H501.854L500.305 177.57H495.171ZM499.925 176.118L498.512 171.95C498.186 171 497.983 170.145 497.765 169.303C497.548 170.158 497.303 171.041 497.032 171.923L495.605 176.118H499.925Z" fill="#FF0000"/>
<path d="M507.695 167.837C508.824 167.634 509.97 167.534 511.118 167.538C512.528 167.41 513.938 167.785 515.098 168.597C515.489 168.894 515.802 169.281 516.011 169.726C516.219 170.17 516.316 170.659 516.293 171.149C516.269 171.868 516.021 172.561 515.582 173.131C515.144 173.701 514.537 174.119 513.848 174.326C514.686 174.497 515.44 174.95 515.984 175.61C516.528 176.269 516.829 177.095 516.836 177.95C516.846 178.493 516.743 179.031 516.532 179.532C516.322 180.032 516.009 180.483 515.614 180.855C514.166 181.906 512.382 182.389 510.602 182.213C509.63 182.216 508.659 182.157 507.695 182.036V167.837ZM509.569 173.769H511.267C513.25 173.769 514.405 172.738 514.405 171.339C514.405 169.643 513.114 168.977 511.226 168.977C510.671 168.962 510.115 169.007 509.569 169.113V173.769ZM509.569 180.706C510.086 180.781 510.609 180.813 511.131 180.801C513.074 180.801 514.853 180.095 514.853 177.991C514.853 175.887 513.155 175.195 511.118 175.195H509.569V180.706Z" fill="#FF0000"/>
<path d="M459.908 206.077C459.908 206.077 481.642 180.434 560.561 211.996C560.561 211.996 645.444 235.005 663.211 217.249V325.14C663.211 325.14 664.407 381.217 602.616 385.697H520.504C520.504 385.697 463.861 387.054 459.908 325.14V206.077Z" fill="#FF0000"/>
<path d="M784.797 257.281L787.12 281.24C787.12 281.24 796.764 283.004 787.12 294.814C787.12 294.814 772.64 312.787 762.561 302.267C762.561 302.267 749.045 293.851 757.956 287.335V278.62L782.039 255.543L784.797 257.281Z" fill="#F9B499"/>
<path d="M788.451 560.213L784.05 501.231C784.05 501.231 779.065 449.172 771.743 411.136C771.743 411.136 753.27 319.072 755.606 294.787C755.077 293.473 755.021 292.016 755.45 290.666C755.879 289.316 756.765 288.157 757.956 287.389V282.665C757.956 282.665 700.715 306.285 727.91 366.529C727.91 366.529 745.487 422.729 751.287 470.348C752.062 476.864 752.157 483.442 751.572 489.977C749.806 510.896 748.679 565.52 788.451 560.213Z" fill="#5B47CD"/>
<path opacity="0.7" d="M788.451 560.213L784.05 501.231C784.05 501.231 779.065 449.172 771.743 411.136C771.743 411.136 753.27 319.072 755.606 294.787C755.077 293.473 755.021 292.016 755.45 290.666C755.879 289.316 756.765 288.157 757.956 287.389V282.665C757.956 282.665 700.715 306.285 727.91 366.529C727.91 366.529 745.487 422.729 751.287 470.348C752.062 476.864 752.157 483.442 751.572 489.977C749.806 510.896 748.679 565.52 788.451 560.213Z" fill="white"/>
<path d="M821.282 400.154C821.282 400.154 819.041 414.448 826.104 440.878C828.408 447.997 831.175 454.958 834.39 461.715C834.39 461.715 842.866 445.493 821.282 400.154Z" fill="#5B47CD"/>
<path opacity="0.9" d="M821.282 400.154C821.282 400.154 819.041 414.448 826.104 440.878C828.408 447.997 831.175 454.958 834.39 461.715C834.39 461.715 842.866 445.493 821.282 400.154Z" fill="white"/>
<path d="M755.606 363.312L813.349 352.371C813.349 352.371 836.047 401.62 835.083 440.824L782.189 448.195C782.189 448.195 766.514 384.529 755.606 363.312Z" fill="white"/>
<path d="M821.282 400.154L843.409 396.081C843.409 396.081 814.49 306.638 853.325 309.937C853.325 309.937 884.268 340.032 884.934 411.122C884.934 411.122 885.735 440.986 834.39 461.647C834.39 461.661 841.847 443.023 821.282 400.154Z" fill="#5B47CD"/>
<path opacity="0.8" d="M821.282 400.154L843.409 396.081C843.409 396.081 814.49 306.638 853.325 309.937C853.325 309.937 884.268 340.032 884.934 411.122C884.934 411.122 885.735 440.986 834.39 461.647C834.39 461.661 841.847 443.023 821.282 400.154Z" fill="white"/>
<path d="M830.777 423.76H820.44C819.058 423.758 817.712 424.195 816.596 425.009C810.062 429.774 786.278 446.199 778.358 439.045C778.358 439.045 776.172 434.973 778.358 432.258C778.358 432.258 773.142 431.267 774.283 425.05C774.283 425.05 770.331 423.353 773.007 418.032C770.723 416.11 769.106 413.516 768.388 410.62C768.245 409.711 768.423 408.78 768.891 407.987C769.359 407.194 770.089 406.589 770.955 406.276L793.667 397.588C793.667 397.588 791.915 390.299 781.17 385.724C781.17 385.724 775.913 382.018 780.953 379.833C780.953 379.833 799.807 376.099 809.682 398.674L821.255 400.113C821.255 400.113 828.25 414.611 830.777 423.76Z" fill="#F9B499"/>
<path d="M773.034 418.072L791.412 411.136" stroke="#F7A48B" stroke-miterlimit="10"/>
<path d="M774.311 425.091L791.412 418.072" stroke="#F7A48B" stroke-miterlimit="10"/>
<path d="M778.345 432.299L794.468 425.091" stroke="#F7A48B" stroke-miterlimit="10"/>
<path d="M694.603 435.679L663.211 403.995C663.211 403.995 628.003 395.566 637.403 357.652C637.647 356.499 638.253 355.455 639.132 354.671C640.012 353.887 641.12 353.405 642.293 353.294C645.295 353.145 649.37 355.52 652.929 366.543C652.929 366.543 660.386 374.185 663.239 370.683C663.239 370.683 656.447 355.819 663.239 357.326C663.239 357.326 667.409 368.05 672.231 372.434C672.231 372.434 679.607 382.072 678.778 391.276L690.541 400.29C692.125 405.615 693.256 411.064 693.924 416.579C694.73 422.912 694.957 429.305 694.603 435.679Z" fill="#F9B499"/>
<path d="M757.956 280.928V287.403C757.956 287.403 776.022 285.869 776.62 264.434L757.956 280.928Z" fill="#F7A48B"/>
<path d="M782.526 248.289C786.705 227.427 779.121 208.319 765.586 205.611C752.051 202.903 737.691 217.621 733.512 238.484C729.333 259.347 736.917 278.454 750.452 281.162C763.987 283.87 778.347 269.152 782.526 248.289Z" fill="#F9B499"/>
<path d="M785.259 261.964C789.077 261.964 792.173 257.472 792.173 251.932C792.173 246.392 789.077 241.9 785.259 241.9C781.44 241.9 778.345 246.392 778.345 251.932C778.345 257.472 781.44 261.964 785.259 261.964Z" fill="#F9B499"/>
<path d="M791.915 249.285C791.915 249.285 788.818 236.05 779.988 245.457C779.988 245.457 768.809 240.91 757.956 210.014C757.956 210.014 741.343 206.158 733.506 238.52C733.506 238.52 727.76 204.163 751.436 201.543C751.436 201.543 761.569 193.493 773.821 193.67C777.257 193.708 780.651 194.423 783.809 195.774C786.967 197.125 789.828 199.086 792.227 201.543C795.2 206.021 797.76 210.76 799.875 215.701C804.805 227.471 807.631 243.787 791.915 249.285Z" fill="black"/>
<path d="M799.807 215.633C797.692 210.692 795.132 205.953 792.159 201.475C789.76 199.018 786.899 197.057 783.741 195.706C780.583 194.355 777.189 193.64 773.754 193.602C773.754 193.602 777.693 180.448 796.465 191.959C796.451 191.946 823.89 209.09 799.807 215.633Z" fill="black"/>
<path opacity="0.2" d="M799.807 215.633C797.692 210.692 795.132 205.953 792.159 201.475C789.76 199.018 786.899 197.057 783.741 195.706C780.583 194.355 777.189 193.64 773.754 193.602C773.754 193.602 777.693 180.448 796.465 191.959C796.451 191.946 823.89 209.09 799.807 215.633Z" fill="black"/>
<path d="M125.715 732.366C125.455 732.366 125.207 732.264 125.023 732.08C124.84 731.897 124.737 731.648 124.737 731.389C125.063 693.882 113.028 551.185 83.9864 508.765C83.8461 508.55 83.7932 508.29 83.8387 508.037C83.8841 507.785 84.0244 507.56 84.2309 507.407C84.4447 507.264 84.706 507.209 84.9596 507.254C85.2131 507.3 85.4389 507.442 85.5892 507.652C115.296 551.09 126.896 692.389 126.625 731.348C126.636 731.603 126.547 731.852 126.377 732.043C126.207 732.233 125.969 732.349 125.715 732.366Z" fill="#5B47CD"/>
<path d="M136.242 721.995H115.188C98.5207 767.565 105.679 865.575 115.188 865.575H136.242C145.75 865.575 152.909 767.565 136.242 721.995Z" fill="#2B9F75"/>
<path d="M92.3674 527.43C96.8364 530.579 97.3797 534.136 95.5595 536.661C93.7394 539.186 90.3027 540.014 85.7659 536.864C81.229 533.715 77.8739 524.362 77.8739 524.362C77.8739 524.362 87.8577 524.281 92.3674 527.43Z" fill="#5B47CD"/>
<path d="M119.236 569.891C117.728 575.213 114.604 576.801 111.534 575.932C108.464 575.063 106.644 572.063 108.138 566.769C109.632 561.475 117.402 555.258 117.402 555.258C117.402 555.258 120.73 564.638 119.236 569.891Z" fill="#5B47CD"/>
<path d="M111.914 605.267C115.69 609.272 115.473 612.787 113.164 614.946C110.854 617.104 107.35 617.186 103.547 613.181C99.7432 609.177 98.3577 599.321 98.3577 599.321C98.3577 599.321 108.111 601.29 111.914 605.267Z" fill="#5B47CD"/>
<path d="M133.539 668.783C131.311 673.86 128.106 675.041 125.131 673.792C122.156 672.543 120.798 669.326 122.903 664.29C125.008 659.253 133.675 654.027 133.675 654.027C133.675 654.027 135.712 663.733 133.539 668.783Z" fill="#5B47CD"/>
<path d="M76.7329 497.661C73.0925 494.226 81.2154 484.249 86.8254 484.493C89.7322 484.683 89.0666 488.783 89.2432 492.204C89.4198 495.624 88.8357 498.774 84.2989 499.629C79.762 500.484 78.4851 499.385 76.7329 497.661Z" fill="#5B47CD"/>
<path opacity="0.2" d="M76.7329 497.661C73.0925 494.226 81.2154 484.249 86.8254 484.493C89.7322 484.683 89.0666 488.783 89.2432 492.204C89.4198 495.624 88.8357 498.774 84.2989 499.629C79.762 500.484 78.4851 499.385 76.7329 497.661Z" fill="black"/>
<path d="M85.5757 493.507C85.2361 488.498 72.1552 488.403 69.0039 492.882C67.2788 495.244 72.7665 495.76 74.4372 498.774C76.108 501.787 78.7432 503.538 82.3021 500.593C85.8609 497.647 85.7115 495.896 85.5757 493.507Z" fill="#5B47CD"/>
<path d="M89.5692 497.321C89.1345 490.615 72.0194 490.615 67.6998 496.493C65.4722 499.602 70.1449 502.439 73.5136 505.439C76.8822 508.439 80.5362 510.557 85.2361 506.674C89.9359 502.792 89.7729 500.484 89.5692 497.321Z" fill="#407BFF"/>
<path opacity="0.2" d="M89.5692 497.321C89.1345 490.615 72.0194 490.615 67.6998 496.493C65.4722 499.602 70.1449 502.439 73.5136 505.439C76.8822 508.439 80.5362 510.557 85.2361 506.674C89.9359 502.792 89.7729 500.484 89.5692 497.321Z" fill="black"/>
<path d="M77.9418 502.805C73.1333 498.326 83.9457 484.928 91.3623 485.43C95.1928 485.661 91.1449 491.674 92.8021 495.869C94.4593 500.063 94.0246 504.271 88.0343 505.371C82.044 506.47 80.251 504.909 77.9418 502.805Z" fill="#407BFF"/>
<path d="M89.5692 497.321C89.1345 490.615 72.0194 490.615 67.6998 496.493C65.4722 499.602 70.1449 502.439 73.5136 505.439C76.8822 508.439 80.5362 510.557 85.2361 506.674C89.9359 502.792 89.7729 500.484 89.5692 497.321Z" fill="#5B47CD"/>
<path opacity="0.2" d="M89.5692 497.321C89.1345 490.615 72.0194 490.615 67.6998 496.493C65.4722 499.602 70.1449 502.439 73.5136 505.439C76.8822 508.439 80.5362 510.557 85.2361 506.674C89.9359 502.792 89.7729 500.484 89.5692 497.321Z" fill="black"/>
<path d="M77.9418 502.805C73.1333 498.326 83.9457 484.928 91.3623 485.43C95.1928 485.661 91.1449 491.674 92.8021 495.869C94.4593 500.063 94.0246 504.271 88.0343 505.371C82.044 506.47 80.251 504.909 77.9418 502.805Z" fill="#5B47CD"/>
<path d="M79.2051 510.339C73.6494 505.113 86.0919 489.842 94.5 490.357C98.969 490.629 97.9774 496.86 98.1676 502.072C98.3577 507.285 97.5563 512.036 90.6695 513.244C83.7827 514.452 81.8131 512.796 79.2051 510.339Z" fill="#5B47CD"/>
<path opacity="0.2" d="M79.2051 510.339C73.6494 505.113 86.0919 489.842 94.5 490.357C98.969 490.629 97.9774 496.86 98.1676 502.072C98.3577 507.285 97.5563 512.036 90.6695 513.244C83.7827 514.452 81.8131 512.796 79.2051 510.339Z" fill="black"/>
<path d="M92.544 504.081C92.055 496.48 72.4269 496.317 67.3875 503.118C64.793 506.688 73.0925 507.584 75.5375 512.05C77.9826 516.516 82.1255 519.299 87.5045 514.765C92.8836 510.231 92.8021 507.624 92.544 504.081Z" fill="#5B47CD"/>
</svg>
