<svg width="503" height="411" viewBox="0 0 503 411" fill="none" xmlns="http://www.w3.org/2000/svg">
<g style="mix-blend-mode:screen" opacity="0.5">
<path d="M364.317 372.176C386.91 360.364 408.876 344.524 419.657 321.428C432.5 293.924 427.196 261.693 420.32 232.139C418.527 224.415 416.636 216.373 418.453 208.662C421.314 196.531 432.365 188.451 440.272 178.825C459.783 155.066 460.188 120.809 453.73 90.7508C451.2 78.9757 447.664 67.1637 440.874 57.2181C430.216 41.6243 412.584 32.1453 394.584 26.4234C356.091 14.1817 313.275 16.9935 276.096 32.8083C238.916 48.6108 207.508 77.0602 186.781 111.723C177.155 127.808 169.186 145.869 153.985 156.846C139.976 166.952 121.987 169.407 106.173 176.369C75.4639 189.876 54.7132 219.713 42.5451 250.986C35.7182 268.508 31.0524 287.134 31.4821 305.945C32.6117 355.194 73.2293 400.539 122.049 407.071C135.924 408.925 149.995 407.98 163.956 407.022C182.729 405.745 202.081 402.921 220.879 403.142C235.245 403.314 248.297 405.156 263.031 403.424C298.308 399.225 332.823 388.629 364.317 372.176Z" fill="url(#paint0_linear_86_156)"/>
</g>
<path d="M88.9335 316.971C98.4739 321.846 107.781 327.408 115.652 334.628C116.167 335.094 116.671 335.561 117.162 336.052C117.935 336.789 118.697 337.562 119.421 338.336L119.433 338.348C127.243 346.575 133.259 356.41 138.686 366.405C145.034 378.069 150.793 390.274 153.224 403.339C153.261 403.584 153.224 403.805 153.064 404.014C152.721 404.53 151.812 404.91 150.51 405.18C142.591 406.887 119.875 404.775 116.351 403.867C103.422 400.527 90.763 394.461 79.2457 387.794C70.5156 382.735 62.2276 376.927 54.4675 370.469H54.4553C53.473 369.646 52.503 368.824 51.5452 367.989C39.8069 357.797 29.3701 346.121 20.6278 333.277C17.2144 328.292 14.0711 323.123 11.1979 317.806L11.026 317.475L9.61394 314.749C5.94264 307.64 2.77477 300.248 0.15944 292.66C0.0980467 292.512 0.0612097 292.365 -0.000183105 292.218C1.42413 292.291 2.86072 292.39 4.28504 292.5C18.2949 293.556 32.1574 296.098 45.6884 299.916C46.6215 300.174 47.567 300.457 48.5124 300.739C62.4609 304.865 75.9919 310.353 88.9335 316.971Z" fill="url(#paint1_linear_86_156)"/>
<path d="M54.4682 370.458C72.1985 370.703 89.8673 371.71 107.512 373.491C107.831 373.527 108.101 373.417 108.31 373.282C115.8 378.905 123.277 384.554 130.743 390.214C130.816 390.558 130.915 390.914 130.988 391.27C131.234 392.35 132.511 392.547 133.137 392.019C138.932 396.402 144.728 400.786 150.523 405.169C151.813 404.899 152.734 404.518 153.077 404.003C146.361 398.932 139.657 393.848 132.941 388.765C129.122 371.759 124.628 354.962 119.446 338.349L119.434 338.337C118.71 337.563 117.948 336.79 117.175 336.053C116.684 335.574 116.168 335.095 115.665 334.629C121.141 351.684 125.88 368.96 129.883 386.444C113.688 374.203 97.48 361.973 81.1373 349.94C72.8738 343.862 64.4998 337.956 56.1013 332.075C56.0276 331.928 55.9785 331.78 55.9048 331.633C55.8066 331.375 55.6224 331.215 55.4382 331.093C53.7684 320.803 51.4723 310.673 48.5377 300.716C47.5922 300.433 46.6468 300.163 45.7136 299.893C48.6605 309.654 50.9811 319.588 52.6878 329.668C48.4886 326.709 44.277 323.738 40.0777 320.742C27.7378 311.95 16.6748 301.194 4.31029 292.477L0.184692 292.648C13.2859 301.452 24.6927 312.785 37.5484 321.982C39.8199 323.615 42.1037 325.211 44.3752 326.832C33.0421 322.117 21.3775 318.298 9.62691 314.738L11.0512 317.463L11.2231 317.795C25.1961 322.056 39.0218 326.758 52.2826 333.008C52.6142 333.168 52.9211 333.155 53.1913 333.045C53.2158 333.07 53.2527 333.094 53.2895 333.106C53.2895 333.119 53.3018 333.155 53.2895 333.155C53.4 333.904 54.1613 334.383 54.8489 334.199C63.1492 340.031 71.4249 345.864 79.5902 351.868C88.0869 358.13 96.5591 364.441 104.995 370.777C87.2274 369.07 69.4235 368.125 51.5828 367.977L54.4682 370.458Z" fill="#FFE6E8"/>
<path d="M70.442 175.08C72.91 179.525 75.7586 183.712 78.8528 187.702C87.2759 198.606 97.7127 207.962 108.653 216.569C109.807 217.49 110.974 218.387 112.152 219.283C113.442 220.265 114.719 221.247 116.008 222.217C125.352 229.216 134.954 235.945 144.15 243.091C145.194 243.889 146.225 244.7 147.232 245.534C154.305 251.17 161.095 257.125 167.271 263.731C168.609 265.168 169.948 266.641 171.224 268.152V268.164C172.71 269.907 174.135 271.7 175.534 273.517V273.53C186.339 287.859 193.768 304.815 193.473 322.595C193.338 332.074 191.005 341.43 187.886 350.393C184.94 358.878 181.195 367.227 175.387 374.054C171.998 378.02 168.511 381.249 164.962 383.791C163.992 384.479 163.035 385.105 162.065 385.694C129.526 405.61 93.0837 370.714 77.0356 335.819C75.7586 333.068 74.6167 330.306 73.6344 327.568C71.3261 321.269 69.7544 315.142 69.0791 309.469C67.8881 299.634 68.1459 289.75 69.1159 279.89V279.878C69.3492 277.299 69.6562 274.733 69.9877 272.142C69.9754 272.142 69.9754 272.118 69.9754 272.118C71.2647 262.061 73.0573 252.005 74.5062 241.986C74.5185 241.863 74.5308 241.765 74.5676 241.642H74.5553C74.7886 240.046 75.0342 238.437 75.2184 236.817C77.6373 218.571 78.4599 199.674 73.1187 182.361C73.1065 182.324 73.0819 182.3 73.0696 182.263C72.3329 179.844 71.4489 177.438 70.442 175.08Z" fill="url(#paint2_linear_86_156)"/>
<path d="M162.065 385.707C158.749 381.962 155.557 378.118 152.524 374.177C127.451 369.978 103.999 359.074 84.5868 342.621C82.1065 340.521 79.5649 338.25 77.0355 335.819L73.6343 327.568C78.7176 332.97 84.0588 337.796 89.1176 341.921C106.602 356.177 127.402 365.766 149.467 370.125C143.843 362.488 138.723 354.544 134.02 346.317C133.812 346.317 133.566 346.28 133.32 346.182C103.852 333.572 80.7436 309.26 69.1035 279.89V279.878C69.3368 277.299 69.6438 274.733 69.9753 272.142C79.9701 302.421 102.157 327.825 131.344 341.528C123.915 327.789 117.653 313.3 112.263 298.21C108.26 287.024 104.454 275.777 100.709 264.505C100.623 264.48 100.549 264.48 100.463 264.419C90.3454 258.378 81.6277 250.691 74.5675 241.654H74.5552L75.2182 236.829C81.6399 245.706 89.6824 253.368 99.0509 259.483C95.8831 249.942 92.7398 240.402 89.5596 230.862C84.2307 214.961 79.7245 198.102 73.1186 182.374C73.1063 182.337 70.4664 175.117 70.4542 175.08L78.865 187.702C83.2975 199.564 86.8092 211.83 90.7752 223.666C94.6552 235.282 98.5107 246.91 102.391 258.55C106.185 254.793 106.59 247.474 107.29 242.723C108.235 236.387 108.714 229.978 108.776 223.568C108.8 221.223 108.751 218.89 108.665 216.569L112.164 219.283C112.287 223.74 112.164 228.185 111.833 232.63C111.219 241.053 111.489 256.475 103.594 262.098C106.553 270.951 109.512 279.779 112.545 288.595C114.866 295.336 117.334 301.954 119.961 308.462C132.314 288.264 140.479 266.101 144.162 243.091L147.244 245.522C143.278 268.802 134.818 291.223 122.147 311.544C121.963 311.851 121.717 312.035 121.447 312.158C127.955 327.838 135.518 342.768 144.543 356.778C147.564 347.704 153.224 340.215 158.246 331.988C163.44 323.516 167.43 314.331 169.874 304.68C172.919 292.598 173.533 280.123 171.237 268.152V268.139L171.777 268.802L175.546 273.505V273.517C176.492 281.646 176.197 289.934 174.773 298.173C173.103 307.86 169.911 317.29 165.515 326.07C159.597 337.808 150.388 347.631 147.023 360.536C152.45 368.615 158.393 376.375 164.987 383.779L162.065 385.707Z" fill="#FFE6E8"/>
<path d="M436.835 135.31H332.221V274.143H436.835V135.31Z" fill="url(#paint3_linear_86_156)"/>
<path d="M356.029 151.996C356.904 151.996 357.613 151.287 357.613 150.412C357.613 149.537 356.904 148.828 356.029 148.828C355.154 148.828 354.445 149.537 354.445 150.412C354.445 151.287 355.154 151.996 356.029 151.996Z" fill="#2D2796"/>
<path d="M364.17 151.996C365.045 151.996 365.754 151.287 365.754 150.412C365.754 149.537 365.045 148.828 364.17 148.828C363.295 148.828 362.586 149.537 362.586 150.412C362.586 151.287 363.295 151.996 364.17 151.996Z" fill="#2D2796"/>
<path d="M372.311 151.996C373.185 151.996 373.894 151.287 373.894 150.412C373.894 149.537 373.185 148.828 372.311 148.828C371.436 148.828 370.727 149.537 370.727 150.412C370.727 151.287 371.436 151.996 372.311 151.996Z" fill="#2D2796"/>
<path d="M380.451 151.996C381.326 151.996 382.035 151.287 382.035 150.412C382.035 149.537 381.326 148.828 380.451 148.828C379.577 148.828 378.867 149.537 378.867 150.412C378.867 151.287 379.577 151.996 380.451 151.996Z" fill="#2D2796"/>
<path d="M388.604 151.996C389.479 151.996 390.188 151.287 390.188 150.412C390.188 149.537 389.479 148.828 388.604 148.828C387.729 148.828 387.02 149.537 387.02 150.412C387.02 151.287 387.729 151.996 388.604 151.996Z" fill="#2D2796"/>
<path d="M396.745 151.996C397.62 151.996 398.329 151.287 398.329 150.412C398.329 149.537 397.62 148.828 396.745 148.828C395.87 148.828 395.161 149.537 395.161 150.412C395.161 151.287 395.87 151.996 396.745 151.996Z" fill="#2D2796"/>
<path d="M404.886 151.996C405.761 151.996 406.47 151.287 406.47 150.412C406.47 149.537 405.761 148.828 404.886 148.828C404.011 148.828 403.302 149.537 403.302 150.412C403.302 151.287 404.011 151.996 404.886 151.996Z" fill="#2D2796"/>
<path d="M413.026 151.996C413.901 151.996 414.61 151.287 414.61 150.412C414.61 149.537 413.901 148.828 413.026 148.828C412.151 148.828 411.442 149.537 411.442 150.412C411.442 151.287 412.151 151.996 413.026 151.996Z" fill="#2D2796"/>
<path d="M356.029 158.565C356.904 158.565 357.613 157.856 357.613 156.981C357.613 156.106 356.904 155.397 356.029 155.397C355.154 155.397 354.445 156.106 354.445 156.981C354.445 157.856 355.154 158.565 356.029 158.565Z" fill="#2D2796"/>
<path d="M364.17 158.565C365.045 158.565 365.754 157.856 365.754 156.981C365.754 156.106 365.045 155.397 364.17 155.397C363.295 155.397 362.586 156.106 362.586 156.981C362.586 157.856 363.295 158.565 364.17 158.565Z" fill="#2D2796"/>
<path d="M372.311 158.565C373.185 158.565 373.894 157.856 373.894 156.981C373.894 156.106 373.185 155.397 372.311 155.397C371.436 155.397 370.727 156.106 370.727 156.981C370.727 157.856 371.436 158.565 372.311 158.565Z" fill="#2D2796"/>
<path d="M380.451 158.565C381.326 158.565 382.035 157.856 382.035 156.981C382.035 156.106 381.326 155.397 380.451 155.397C379.577 155.397 378.867 156.106 378.867 156.981C378.867 157.856 379.577 158.565 380.451 158.565Z" fill="#2D2796"/>
<path d="M388.604 158.565C389.479 158.565 390.188 157.856 390.188 156.981C390.188 156.106 389.479 155.397 388.604 155.397C387.729 155.397 387.02 156.106 387.02 156.981C387.02 157.856 387.729 158.565 388.604 158.565Z" fill="#2D2796"/>
<path d="M396.745 158.565C397.62 158.565 398.329 157.856 398.329 156.981C398.329 156.106 397.62 155.397 396.745 155.397C395.87 155.397 395.161 156.106 395.161 156.981C395.161 157.856 395.87 158.565 396.745 158.565Z" fill="#2D2796"/>
<path d="M404.886 158.565C405.761 158.565 406.47 157.856 406.47 156.981C406.47 156.106 405.761 155.397 404.886 155.397C404.011 155.397 403.302 156.106 403.302 156.981C403.302 157.856 404.011 158.565 404.886 158.565Z" fill="#2D2796"/>
<path d="M413.026 158.565C413.901 158.565 414.61 157.856 414.61 156.981C414.61 156.106 413.901 155.397 413.026 155.397C412.151 155.397 411.442 156.106 411.442 156.981C411.442 157.856 412.151 158.565 413.026 158.565Z" fill="#2D2796"/>
<path d="M356.029 165.122C356.904 165.122 357.613 164.413 357.613 163.538C357.613 162.663 356.904 161.954 356.029 161.954C355.154 161.954 354.445 162.663 354.445 163.538C354.445 164.413 355.154 165.122 356.029 165.122Z" fill="#2D2796"/>
<path d="M364.17 165.122C365.045 165.122 365.754 164.413 365.754 163.538C365.754 162.663 365.045 161.954 364.17 161.954C363.295 161.954 362.586 162.663 362.586 163.538C362.586 164.413 363.295 165.122 364.17 165.122Z" fill="#2D2796"/>
<path d="M372.311 165.122C373.185 165.122 373.894 164.413 373.894 163.538C373.894 162.663 373.185 161.954 372.311 161.954C371.436 161.954 370.727 162.663 370.727 163.538C370.727 164.413 371.436 165.122 372.311 165.122Z" fill="#2D2796"/>
<path d="M380.451 165.122C381.326 165.122 382.035 164.413 382.035 163.538C382.035 162.663 381.326 161.954 380.451 161.954C379.577 161.954 378.867 162.663 378.867 163.538C378.867 164.413 379.577 165.122 380.451 165.122Z" fill="#2D2796"/>
<path d="M388.604 165.122C389.479 165.122 390.188 164.413 390.188 163.538C390.188 162.663 389.479 161.954 388.604 161.954C387.729 161.954 387.02 162.663 387.02 163.538C387.02 164.413 387.729 165.122 388.604 165.122Z" fill="#2D2796"/>
<path d="M396.745 165.122C397.62 165.122 398.329 164.413 398.329 163.538C398.329 162.663 397.62 161.954 396.745 161.954C395.87 161.954 395.161 162.663 395.161 163.538C395.161 164.413 395.87 165.122 396.745 165.122Z" fill="#2D2796"/>
<path d="M404.886 165.122C405.761 165.122 406.47 164.413 406.47 163.538C406.47 162.663 405.761 161.954 404.886 161.954C404.011 161.954 403.302 162.663 403.302 163.538C403.302 164.413 404.011 165.122 404.886 165.122Z" fill="#2D2796"/>
<path d="M413.026 165.122C413.901 165.122 414.61 164.413 414.61 163.538C414.61 162.663 413.901 161.954 413.026 161.954C412.151 161.954 411.442 162.663 411.442 163.538C411.442 164.413 412.151 165.122 413.026 165.122Z" fill="#2D2796"/>
<path d="M356.029 171.691C356.904 171.691 357.613 170.982 357.613 170.107C357.613 169.232 356.904 168.523 356.029 168.523C355.154 168.523 354.445 169.232 354.445 170.107C354.445 170.982 355.154 171.691 356.029 171.691Z" fill="#2D2796"/>
<path d="M364.17 171.691C365.045 171.691 365.754 170.982 365.754 170.107C365.754 169.232 365.045 168.523 364.17 168.523C363.295 168.523 362.586 169.232 362.586 170.107C362.586 170.982 363.295 171.691 364.17 171.691Z" fill="#2D2796"/>
<path d="M372.311 171.691C373.185 171.691 373.894 170.982 373.894 170.107C373.894 169.232 373.185 168.523 372.311 168.523C371.436 168.523 370.727 169.232 370.727 170.107C370.727 170.982 371.436 171.691 372.311 171.691Z" fill="#2D2796"/>
<path d="M380.451 171.691C381.326 171.691 382.035 170.982 382.035 170.107C382.035 169.232 381.326 168.523 380.451 168.523C379.577 168.523 378.867 169.232 378.867 170.107C378.867 170.982 379.577 171.691 380.451 171.691Z" fill="#2D2796"/>
<path d="M388.604 171.691C389.479 171.691 390.188 170.982 390.188 170.107C390.188 169.232 389.479 168.523 388.604 168.523C387.729 168.523 387.02 169.232 387.02 170.107C387.02 170.982 387.729 171.691 388.604 171.691Z" fill="#2D2796"/>
<path d="M396.745 171.691C397.62 171.691 398.329 170.982 398.329 170.107C398.329 169.232 397.62 168.523 396.745 168.523C395.87 168.523 395.161 169.232 395.161 170.107C395.161 170.982 395.87 171.691 396.745 171.691Z" fill="#2D2796"/>
<path d="M404.886 171.691C405.761 171.691 406.47 170.982 406.47 170.107C406.47 169.232 405.761 168.523 404.886 168.523C404.011 168.523 403.302 169.232 403.302 170.107C403.302 170.982 404.011 171.691 404.886 171.691Z" fill="#2D2796"/>
<path d="M413.026 171.691C413.901 171.691 414.61 170.982 414.61 170.107C414.61 169.232 413.901 168.523 413.026 168.523C412.151 168.523 411.442 169.232 411.442 170.107C411.442 170.982 412.151 171.691 413.026 171.691Z" fill="#2D2796"/>
<path d="M356.029 178.248C356.904 178.248 357.613 177.539 357.613 176.664C357.613 175.789 356.904 175.08 356.029 175.08C355.154 175.08 354.445 175.789 354.445 176.664C354.445 177.539 355.154 178.248 356.029 178.248Z" fill="#2D2796"/>
<path d="M364.17 178.248C365.045 178.248 365.754 177.539 365.754 176.664C365.754 175.789 365.045 175.08 364.17 175.08C363.295 175.08 362.586 175.789 362.586 176.664C362.586 177.539 363.295 178.248 364.17 178.248Z" fill="#2D2796"/>
<path d="M372.311 178.248C373.185 178.248 373.894 177.539 373.894 176.664C373.894 175.789 373.185 175.08 372.311 175.08C371.436 175.08 370.727 175.789 370.727 176.664C370.727 177.539 371.436 178.248 372.311 178.248Z" fill="#2D2796"/>
<path d="M380.451 178.248C381.326 178.248 382.035 177.539 382.035 176.664C382.035 175.789 381.326 175.08 380.451 175.08C379.577 175.08 378.867 175.789 378.867 176.664C378.867 177.539 379.577 178.248 380.451 178.248Z" fill="#2D2796"/>
<path d="M388.604 178.248C389.479 178.248 390.188 177.539 390.188 176.664C390.188 175.789 389.479 175.08 388.604 175.08C387.729 175.08 387.02 175.789 387.02 176.664C387.02 177.539 387.729 178.248 388.604 178.248Z" fill="#2D2796"/>
<path d="M396.745 178.248C397.62 178.248 398.329 177.539 398.329 176.664C398.329 175.789 397.62 175.08 396.745 175.08C395.87 175.08 395.161 175.789 395.161 176.664C395.161 177.539 395.87 178.248 396.745 178.248Z" fill="#2D2796"/>
<path d="M404.886 178.248C405.761 178.248 406.47 177.539 406.47 176.664C406.47 175.789 405.761 175.08 404.886 175.08C404.011 175.08 403.302 175.789 403.302 176.664C403.302 177.539 404.011 178.248 404.886 178.248Z" fill="#2D2796"/>
<path d="M413.026 178.248C413.901 178.248 414.61 177.539 414.61 176.664C414.61 175.789 413.901 175.08 413.026 175.08C412.151 175.08 411.442 175.789 411.442 176.664C411.442 177.539 412.151 178.248 413.026 178.248Z" fill="#2D2796"/>
<path d="M356.029 184.804C356.904 184.804 357.613 184.095 357.613 183.22C357.613 182.346 356.904 181.636 356.029 181.636C355.154 181.636 354.445 182.346 354.445 183.22C354.445 184.095 355.154 184.804 356.029 184.804Z" fill="#2D2796"/>
<path d="M364.17 184.804C365.045 184.804 365.754 184.095 365.754 183.22C365.754 182.346 365.045 181.636 364.17 181.636C363.295 181.636 362.586 182.346 362.586 183.22C362.586 184.095 363.295 184.804 364.17 184.804Z" fill="#2D2796"/>
<path d="M372.311 184.804C373.185 184.804 373.894 184.095 373.894 183.22C373.894 182.346 373.185 181.636 372.311 181.636C371.436 181.636 370.727 182.346 370.727 183.22C370.727 184.095 371.436 184.804 372.311 184.804Z" fill="#2D2796"/>
<path d="M380.451 184.804C381.326 184.804 382.035 184.095 382.035 183.22C382.035 182.346 381.326 181.636 380.451 181.636C379.577 181.636 378.867 182.346 378.867 183.22C378.867 184.095 379.577 184.804 380.451 184.804Z" fill="#2D2796"/>
<path d="M388.604 184.804C389.479 184.804 390.188 184.095 390.188 183.22C390.188 182.346 389.479 181.636 388.604 181.636C387.729 181.636 387.02 182.346 387.02 183.22C387.02 184.095 387.729 184.804 388.604 184.804Z" fill="#2D2796"/>
<path d="M396.745 184.804C397.62 184.804 398.329 184.095 398.329 183.22C398.329 182.346 397.62 181.636 396.745 181.636C395.87 181.636 395.161 182.346 395.161 183.22C395.161 184.095 395.87 184.804 396.745 184.804Z" fill="#2D2796"/>
<path d="M404.886 184.804C405.761 184.804 406.47 184.095 406.47 183.22C406.47 182.346 405.761 181.636 404.886 181.636C404.011 181.636 403.302 182.346 403.302 183.22C403.302 184.095 404.011 184.804 404.886 184.804Z" fill="#2D2796"/>
<path d="M413.026 184.804C413.901 184.804 414.61 184.095 414.61 183.22C414.61 182.346 413.901 181.636 413.026 181.636C412.151 181.636 411.442 182.346 411.442 183.22C411.442 184.095 412.151 184.804 413.026 184.804Z" fill="#2D2796"/>
<path d="M425.526 123.694H368.738V135.31H425.526V123.694Z" fill="url(#paint4_linear_86_156)"/>
<path d="M314.074 375.921C315.94 375.921 317.45 374.41 317.45 372.544V3.37661C317.45 1.51026 315.94 0 314.074 0C312.207 0 310.697 1.51026 310.697 3.37661V372.556C310.685 374.41 312.207 375.921 314.074 375.921Z" fill="url(#paint5_linear_86_156)"/>
<path d="M370.162 49.0774H257.973C256.29 49.0774 254.915 47.7144 254.915 46.02C254.915 44.3378 256.278 42.9626 257.973 42.9626H370.162C371.844 42.9626 373.219 44.3256 373.219 46.02C373.219 47.7144 371.844 49.0774 370.162 49.0774Z" fill="url(#paint6_linear_86_156)"/>
<path d="M489.903 249.992C485.347 261.227 480.583 272.4 475.831 283.561C469.913 297.448 463.958 311.421 455.596 323.982C447.173 336.641 436.442 347.692 428.694 360.769C424.224 368.32 420.283 377.026 412.449 380.979C405.009 384.749 395.972 383.14 388.15 380.218C384.724 378.953 381.409 377.455 378.18 375.773C372.642 372.912 364.894 370.776 357.245 368.406C349.092 365.889 341.05 363.077 335.929 358.804C334.358 357.49 332.737 356.128 331.816 354.298C330.981 352.64 330.772 350.762 330.625 348.92C330.453 346.661 330.404 344.377 330.502 342.081C331.509 313.766 351.093 282.211 363.421 257.285C369.72 244.564 376.522 232.089 383.374 219.639C383.951 218.595 384.516 217.564 385.093 216.52C392.067 203.836 407.084 189.913 420.664 181.526C422.493 180.384 424.31 179.353 426.066 178.432C434.821 173.877 445.331 174.785 455.068 176.418C459.624 177.18 464.154 178.076 468.673 179.071C478.262 181.158 487.766 183.651 497.257 186.143C498.829 186.548 500.511 187.039 501.53 188.304C502.414 189.409 502.623 190.907 502.746 192.331C504.44 212.137 497.38 231.561 489.903 249.992Z" fill="url(#paint7_linear_86_156)"/>
<path d="M489.903 249.992C485.347 261.227 480.583 272.4 475.831 283.561C469.913 297.448 463.958 311.421 455.596 323.982C447.173 336.641 436.442 347.692 428.694 360.769C424.225 368.32 420.283 377.026 412.449 380.979C405.009 384.749 395.972 383.14 388.15 380.218C384.725 378.953 381.409 377.455 378.18 375.773C377.885 369.671 381.188 363.777 385.338 359.197C389.746 354.31 395.174 350.418 399.569 345.519C412.572 331.006 414.844 310.034 423.291 292.463C426.484 285.808 430.597 279.608 433.593 272.867C436.81 265.635 438.689 257.911 440.567 250.225C443.625 237.627 446.694 225.029 449.764 212.419C452.858 199.711 456.984 185.578 468.415 179.206C468.501 179.157 468.587 179.108 468.673 179.071C478.263 181.158 487.766 183.651 497.258 186.143C498.829 186.548 500.511 187.039 501.53 188.304C502.415 189.409 502.623 190.907 502.746 192.332C504.44 212.137 497.38 231.562 489.903 249.992Z" fill="#B6CBD1"/>
<path d="M415.065 252.632C415.028 252.754 415.016 252.877 415.016 253C414.881 255.763 413.493 258.255 410.939 259.323C410.129 259.667 409.355 260.097 408.655 260.613C406.064 262.491 404.21 265.205 402.258 267.746C399.446 271.405 396.254 274.88 394.388 279.116C391.797 285.022 392.067 291.726 391.318 298.148C389.881 310.292 384.577 321.834 376.927 331.374C369.523 340.607 359.885 348.257 349.399 353.696C344.352 356.312 341.614 356.533 337.759 352.272C334.972 349.19 332.467 345.764 330.502 342.081C331.509 313.766 351.093 282.211 363.421 257.285C369.72 244.565 376.522 232.089 383.374 219.639C387.585 218.215 391.834 216.901 396.119 215.747C400.785 214.482 406.064 213.463 410.239 215.894C411.835 216.827 413.161 218.227 414.868 218.939C418.368 220.413 423.549 219.307 425.133 222.758C425.6 223.752 425.563 224.907 425.489 225.999C424.863 235.171 421.437 244.135 415.789 251.391C415.494 251.772 415.187 252.165 415.065 252.632Z" fill="#B6CBD1"/>
<path d="M348.417 345.973C337.992 351.99 325.271 351.867 313.226 351.658C288.485 351.216 263.744 351.093 238.99 351.277C227.902 351.363 216.803 351.511 205.715 351.732C173.57 352.346 141.437 353.488 109.328 355.17C102.71 355.526 94.2257 354.691 92.2489 348.355C90.9596 344.242 93.5258 339.699 97.1357 337.329C99.3827 335.856 101.937 335.033 104.577 334.456C106.185 334.112 107.818 333.854 109.439 333.609C155.557 326.647 201.663 319.685 247.769 312.71C270.165 309.334 292.549 305.957 314.933 302.568C328.218 300.567 351.216 297.068 359.909 311.028C366.92 322.288 358.853 339.932 348.417 345.973Z" fill="#88AEB7"/>
<path d="M247.511 343.922C245.289 347.017 242.33 349.448 238.99 351.265C227.902 351.351 216.803 351.498 205.715 351.719C204.106 347.103 207.68 339.625 207.053 335.02C206.943 334.198 206.783 333.363 206.28 332.7C205.494 331.668 204.082 331.349 202.793 331.165C185.504 328.574 168.081 333.879 150.609 334.615C145.059 334.849 139.386 334.628 134.082 336.31C130.963 337.304 128.065 338.925 124.91 339.809C121.349 340.816 117.579 340.853 113.884 340.853C110.151 340.853 105.387 340.055 104.564 336.408C104.405 335.72 104.429 335.07 104.576 334.443C106.185 334.1 107.818 333.842 109.439 333.596C155.557 326.634 201.663 319.672 247.769 312.698C250.556 316.443 251.919 321.305 252.202 326.02C252.57 332.307 251.183 338.815 247.511 343.922Z" fill="#659296"/>
<path d="M285.342 256.88C284.322 256.118 282.972 255.947 281.695 255.983C277.459 256.106 273.517 258.12 269.846 260.232C268.974 260.735 268.115 261.239 267.194 261.656C266.74 261.853 266.236 262.024 265.757 261.877C265.021 261.644 264.75 260.76 264.591 259.998C264.014 257.297 263.424 254.584 263.167 251.821C263.068 250.851 263.019 249.856 263.044 248.874C263.081 246.824 263.461 244.798 264.419 243.005C266.138 239.825 269.478 237.836 272.891 236.62C274.119 236.19 275.371 235.834 276.661 235.675C277.889 235.515 280.799 234.913 281.425 236.154C281.867 237.025 281.56 239.309 281.56 240.512C281.548 241.63 281.695 242.747 281.867 243.852C281.94 244.294 282.014 244.736 282.088 245.178C282.788 249.169 283.88 253.098 285.342 256.88Z" fill="#FE6361"/>
<path d="M282.088 245.178C281.056 245.019 280.025 244.908 278.981 244.871C276.268 244.761 273.517 245.055 270.89 245.743C269.551 246.099 268.238 246.553 266.973 247.106C265.831 247.609 264.579 248.641 263.363 248.837C263.252 248.862 263.154 248.874 263.044 248.874C263.081 246.824 263.461 244.798 264.419 243.005C266.138 239.825 269.478 237.836 272.891 236.62C274.119 236.19 275.371 235.834 276.661 235.675C277.888 235.515 280.799 234.913 281.425 236.154C281.867 237.025 281.56 239.309 281.56 240.512C281.548 241.63 281.695 242.747 281.867 243.852C281.94 244.294 282.014 244.724 282.088 245.178Z" fill="#E54C4C"/>
<path d="M284.593 235.343C285.035 235.122 285.108 234.533 285.133 234.042C285.378 227.313 284.764 220.548 283.303 213.966C282.788 211.633 282.174 209.313 282.026 206.931C281.879 204.463 282.21 201.823 281.019 199.662C279.362 196.654 280.958 192.835 280.037 189.532C279.534 187.739 278.318 186.241 277.704 184.485C277.225 183.123 277.127 181.661 276.747 180.274C276.243 178.432 275.236 176.738 273.861 175.424C273.677 175.252 273.48 175.08 273.235 175.031C272.781 174.933 272.351 175.289 272.032 175.633C270.448 177.352 269.453 179.537 268.679 181.747C267.206 185.983 266.457 190.441 265.782 194.873C263.903 207.127 262.503 219.872 266.04 231.746C266.506 233.33 266.015 235.012 265.684 236.62C265.291 238.573 265.684 241.839 265.684 243.975C265.684 246.836 269.367 244.319 270.926 243.288C275.322 240.365 279.89 237.713 284.593 235.343Z" fill="#BECFD3"/>
<path d="M142.984 264.173C143.549 276.218 146.029 288.116 146.606 300.149C146.876 305.883 146.717 311.618 146.557 317.352C146.532 318.236 146.545 319.243 147.171 319.869C147.662 320.36 148.387 320.495 149.074 320.593C168.204 323.393 187.396 316.983 206.697 315.854C219.688 315.092 232.875 316.713 245.67 314.356C246.136 314.27 246.615 314.172 246.971 313.877C247.499 313.435 247.646 312.686 247.745 312.01C248.616 306.276 249.488 300.555 250.36 294.821C250.446 294.219 250.532 293.568 250.25 293.028C249.918 292.414 249.218 292.131 248.567 291.898C236.719 287.601 224.87 283.291 212.837 279.521C206.243 277.459 199.551 275.531 193.449 272.265C187.617 269.146 182.484 264.885 177.389 260.662C174.331 258.12 171.249 255.554 168.769 252.447C165.54 248.395 163.33 243.435 159.314 240.156C157.976 239.064 156.429 238.155 155.508 236.694C154.796 235.564 154.501 234.189 153.703 233.108C152.61 231.66 147.65 229.007 145.796 229.879C143.561 230.923 144.04 237.787 143.843 239.96C143.107 248.015 142.603 256.094 142.984 264.173Z" fill="url(#paint8_linear_86_156)"/>
<path d="M177.389 249.218C177.352 249.783 177.315 250.36 177.118 250.888C176.959 251.281 176.713 251.637 176.48 251.981C171.63 258.955 166.203 265.536 160.285 271.626C159.069 272.867 157.35 274.205 155.766 273.48C154.882 273.075 154.378 272.13 153.961 271.246C151.481 266.077 149.406 260.613 148.89 254.891C148.755 253.393 148.73 251.895 148.595 250.397C148.313 247.266 147.576 244.196 147.011 241.102C146.913 240.537 146.815 239.96 146.717 239.395C146.397 237.394 146.14 235.392 145.968 233.379C145.857 232.139 145.747 230.886 145.722 229.646C145.685 228.099 145.661 228.062 147.11 228.394C152.181 229.56 157.227 231.733 162.163 233.379C164.754 234.226 167.332 235.085 169.911 235.945C171.679 236.522 173.509 237.148 174.859 238.413C176.271 239.714 177.032 241.593 177.327 243.484C177.339 243.545 177.352 243.594 177.352 243.656C177.622 245.485 177.511 247.364 177.389 249.218Z" fill="#E54C4C"/>
<path d="M182.288 285.575C194.861 291.272 208.92 292.549 222.672 293.74C223.777 293.838 225.017 293.9 225.877 293.188C226.355 292.795 226.638 292.218 226.896 291.653C228.885 287.441 230.763 283.181 232.519 278.858C232.777 278.232 232.961 277.361 232.384 276.992C232.065 276.783 231.635 276.857 231.255 276.906C229.327 277.139 227.436 276.403 225.631 275.691C214.998 271.467 203.603 268.79 193.719 263.007C190.293 261.005 187.211 259.495 184.67 257.641C181.391 255.235 179.255 251.637 175.448 250.2C171.114 248.567 166.08 250.876 163.133 254.461C160.199 258.046 157.252 261.03 155.999 265.499C155.533 267.157 154.575 271.049 154.894 272.817C155.201 274.438 178.665 283.93 182.288 285.575Z" fill="#FE6361"/>
<path d="M177.352 243.644C177.339 243.631 177.327 243.631 177.315 243.619C168.708 238.376 157.988 237.811 148.006 239.174C147.576 239.236 147.146 239.297 146.717 239.383C146.397 237.382 146.14 235.38 145.968 233.366C145.857 232.126 145.747 230.874 145.722 229.634C145.685 228.087 145.661 228.05 147.11 228.381C152.181 229.548 157.227 231.721 162.163 233.366C164.754 234.214 167.332 235.073 169.911 235.933C171.679 236.51 173.509 237.136 174.859 238.401C176.271 239.702 177.032 241.581 177.327 243.472C177.339 243.545 177.352 243.595 177.352 243.644Z" fill="#C13636"/>
<path d="M163.035 146.888C159.167 149.16 155.213 151.567 152.573 155.189C150.781 157.632 149.7 160.505 148.706 163.366C141.707 183.478 138.478 204.905 139.227 226.183C149.528 229.4 159.744 232.838 169.886 236.522C171.421 237.074 172.993 237.652 174.233 238.707C177.818 241.728 177.523 247.229 176.922 251.882C189.114 262.135 204.205 268.176 219.013 274.057C224.599 276.28 230.272 278.515 236.239 279.288C243.619 280.246 251.084 278.908 258.402 277.581C259.249 277.422 260.158 277.25 260.784 276.648C261.484 275.985 261.681 274.966 261.84 274.021C265.573 251.931 268.692 229.732 271.81 207.544C272.879 199.907 273.959 192.27 275.027 184.633C275.568 180.79 276.108 176.824 275.15 173.066C273.112 165.024 265.106 160.223 257.801 156.294C252.951 153.678 248.088 151.063 243.238 148.46C242.256 147.932 241.274 147.404 240.218 147.06C238.818 146.606 237.332 146.495 235.859 146.385C224.71 145.501 213.622 143.991 202.645 141.842C194.947 140.332 186.683 136.894 178.874 139.337C173.287 141.093 168.081 143.929 163.035 146.888Z" fill="url(#paint9_linear_86_156)"/>
<path d="M239.874 233.87C229.806 236.805 220.081 239.813 209.546 240.402C209.349 240.414 209.178 240.439 208.993 240.451C207.643 240.328 206.243 240.193 204.843 239.997C202.682 239.174 200.583 238.204 198.422 237.283C196.076 236.277 194.026 235.442 192.344 234.165C190.563 220.99 187.236 208.146 181.293 195.905C181.551 189.802 181.895 182.889 181.084 176.406C180.986 166.927 177.757 156.331 167.087 154.833C167.025 154.821 166.964 154.919 167.038 154.943C180.114 160.984 178.69 176.406 177.916 188.341C177.499 194.787 177.106 201.504 177.13 208.183C176.811 211.449 176.517 214.728 176.332 218.043C175.718 228.676 175.706 239.469 176.517 250.078C176.529 250.299 176.885 251.662 176.922 251.883C179.844 254.216 181.612 255.701 184.682 257.641C187.518 259.434 190.49 261.73 193.719 263.007C193.866 263.068 194.014 263.13 194.161 263.179C194.149 261.03 194.099 258.894 194.038 256.745C194.566 253.491 195.88 250.692 198.385 248.506C201.995 246.222 206.722 245.203 210.933 243.767C211.94 243.521 212.935 243.251 213.905 242.932C222.61 240.095 231.193 236.805 239.874 233.87C239.899 233.882 239.886 233.87 239.874 233.87Z" fill="#BECFD3"/>
<path d="M240.537 150.007C240.23 154.17 239.702 158.307 238.941 162.408C237.148 172.194 234.091 181.735 229.855 190.735C229.695 191.079 229.474 191.46 229.106 191.546C228.566 191.656 228.148 191.091 227.878 190.612C222.832 181.661 212.1 177.388 206.059 169.076C203.714 165.859 202.154 162.138 200.092 158.737C195.573 151.284 188.759 145.562 182.067 139.976C181.809 139.472 182.423 138.969 182.951 138.735C189.041 136.059 196.273 134.831 200.411 129.625C203.026 126.334 203.886 122.024 204.672 117.899C205.089 115.676 205.236 113.736 205.04 111.502C204.942 110.311 204.475 109.046 205.359 108.051C206.796 106.418 209.976 107.707 212.788 109.267C214.654 110.286 216.348 111.428 217.269 111.907C220.216 113.417 223.224 114.989 225.484 117.42C227.313 119.384 228.553 121.816 229.781 124.21C232.274 129.134 234.852 134.34 234.57 139.853C234.459 141.817 234.202 144.248 235.871 145.292C237.013 146.017 238.659 145.685 239.69 146.569C240.611 147.38 240.623 148.779 240.537 150.007Z" fill="#DB4646"/>
<path d="M240.537 150.007C240.23 154.17 239.702 158.307 238.941 162.408C238.757 162.47 238.548 162.494 238.339 162.507C237.075 162.568 235.957 161.77 234.95 161.009C232.814 159.376 230.579 157.657 229.462 155.213C228.738 153.605 228.541 151.812 228.025 150.13C226.048 143.696 219.737 139.755 215.526 134.512C211.253 129.183 207.029 118.304 210.135 111.477C210.639 110.372 211.609 109.684 212.788 109.267C214.654 110.286 216.348 111.428 217.269 111.907C220.216 113.417 223.224 114.989 225.484 117.42C227.313 119.384 228.553 121.816 229.781 124.21C232.274 129.134 234.852 134.34 234.57 139.853C234.459 141.817 234.201 144.248 235.871 145.292C237.013 146.017 238.659 145.685 239.69 146.569C240.611 147.38 240.623 148.779 240.537 150.007Z" fill="#C13636"/>
<path d="M262.037 86.3921C261.448 92.2367 259.618 113.577 259.213 117.187C259.078 118.255 258.93 119.348 258.562 120.355C258.243 121.226 257.764 122.025 257.248 122.798C256.217 124.333 255.05 125.769 253.749 127.083C253.491 127.353 253.221 127.611 252.975 127.906C252.975 127.918 252.963 127.93 252.951 127.943C252.46 128.434 252.005 128.95 251.563 129.478C250.421 130.632 249.39 131.872 248.604 133.259C247.732 134.782 247.168 136.476 246.136 137.888C245.67 138.527 245.117 139.079 244.515 139.546C242.146 141.4 238.855 142.075 235.822 141.67C232.004 141.179 228.541 139.239 225.349 137.078C220.339 133.677 215.759 129.649 211.768 125.094C210.516 123.682 209.3 122.16 208.723 120.367C207.827 117.555 208.576 114.35 207.324 111.686C207.127 111.256 206.857 110.839 206.452 110.593C205.519 110.028 204.34 110.63 203.247 110.642C201.148 110.679 199.662 108.53 199.232 106.48C198.79 104.429 199.011 102.268 198.36 100.279C197.771 98.4988 196.531 97.0008 195.831 95.2695C195.119 93.4646 195.156 90.8738 197.145 89.9283C199.109 88.9829 201.258 90.8369 203.051 91.4509C206.894 92.7647 209.264 92.0525 210.16 88.062C212.125 79.3565 215.955 71.8052 224.145 67.348C227.043 65.7764 230.235 64.7695 233.502 64.3521C239.272 63.6276 245.289 64.6959 250.348 67.5936C253.577 69.4354 256.389 71.928 258.967 74.6047C259.851 75.5256 260.723 76.4833 261.312 77.6252C262.688 80.2651 262.332 83.4084 262.037 86.3921Z" fill="#FE6361"/>
<path d="M244.515 139.546C242.146 141.4 238.855 142.075 235.822 141.67C232.004 141.179 228.541 139.239 225.349 137.078C220.339 133.677 215.759 129.649 211.768 125.094C210.516 123.682 209.3 122.16 208.723 120.367C207.827 117.555 208.576 114.35 207.324 111.686C207.127 111.256 206.857 110.839 206.452 110.593C205.519 110.028 204.34 110.63 203.247 110.642C201.148 110.679 199.662 108.53 199.232 106.48C198.79 104.429 199.011 102.268 198.36 100.279C197.771 98.4988 196.531 97.0008 195.831 95.2695C195.119 93.4645 195.156 90.8738 197.145 89.9283C199.109 88.9829 201.258 90.8369 203.051 91.4509C206.894 92.7647 209.264 92.0525 210.16 88.062C212.125 79.3565 215.955 71.8051 224.145 67.348C227.043 65.7764 230.235 64.7695 233.502 64.3521C233.133 65.8623 232.814 67.3357 233.109 69.0916C233.747 72.7015 233.686 75.808 232.053 79.2214C230.346 82.7576 227.632 85.7045 224.894 88.5163C223.556 89.8915 222.205 91.2544 221.211 92.8874C219.639 95.4659 219.086 98.5233 218.559 101.495C218.055 104.282 217.785 107.683 220.032 109.402C221.039 110.163 222.377 110.409 223.384 111.182C225.447 112.791 225.312 115.861 225.263 118.476C225.152 123.952 226.319 129.649 229.646 133.996C232.986 138.343 238.794 141.032 244.098 139.656C244.233 139.607 244.368 139.583 244.515 139.546Z" fill="#EA5757"/>
<path d="M266.101 74.8133C265.635 72.9469 264.628 71.2648 263.596 69.644C259.385 62.9767 254.51 56.5673 248.162 51.8769C241.814 47.1865 233.821 44.3256 225.999 45.3938C223.028 45.799 220.167 46.7445 217.343 47.7267C211.277 49.8509 204.929 52.4786 201.246 57.7338C198.643 61.4542 197.685 66.0341 196.801 70.4912C195.438 77.2812 194.075 84.059 192.712 90.8491C192.27 93.0838 191.816 95.3553 192.049 97.6146C192.344 100.475 193.694 103.103 195.033 105.657C196.371 108.236 197.722 110.802 199.06 113.38C199.502 114.227 199.957 115.099 200.141 116.032C200.779 119.286 198.053 122.356 194.996 123.67C191.951 124.983 188.525 125.155 185.357 126.15C179.771 127.906 175.117 132.4 173.14 137.913C172.833 138.772 172.588 139.718 172.895 140.565C173.14 141.253 173.705 141.768 174.331 142.137C176.713 143.536 179.734 142.959 182.374 142.124C188.722 140.123 194.787 136.845 199.22 131.884C203.652 126.923 206.305 120.17 205.47 113.577C205.347 112.619 206.268 110.335 205.408 109.893C204.856 109.611 202.977 110.151 202.375 109.967C200.927 109.525 200.3 108.604 199.858 107.155C198.508 102.686 199.993 97.9338 195.794 93.7345C195.278 93.2188 195.377 92.3102 195.573 91.6103C196.064 89.8422 199.22 89.4002 200.644 90.2229C202.486 91.2911 203.419 95.1343 204.291 96.9761C204.733 97.9215 205.224 98.9161 206.12 99.4318C207.287 100.119 208.846 99.7633 209.902 98.9284C210.958 98.0934 211.633 96.8656 212.235 95.65C214.028 92.0155 215.452 88.1846 217.478 84.6607C219.504 81.1367 222.23 77.8706 225.901 76.1271C228.455 74.9115 231.414 74.4449 233.87 73.1311C233.587 73.6836 233.256 74.2239 232.851 74.7273C230.825 77.269 227.375 79.1476 225.017 81.3946C220.486 85.7166 216.876 90.5912 215.931 96.9024C215.931 96.9147 215.943 96.9147 215.955 96.9024C218.141 86.6989 226.503 82.9294 233.821 76.8761C236.227 74.8869 237.308 72.1611 237.676 69.2142C238.388 67.6671 238.659 65.9113 238.339 64.2414C239.076 63.9099 239.96 64.401 240.414 65.0764C240.869 65.7517 241.053 66.5621 241.384 67.2988C242.821 70.4298 246.701 71.4858 250.114 71.9278C253.54 72.3698 257.359 72.7505 259.606 75.3658C261.276 77.3058 261.656 80.0439 261.521 82.5979C261.386 85.1518 260.821 87.6812 260.895 90.2351C260.993 93.9433 262.442 97.4672 263.866 100.893C264.8 94.3853 265.585 87.8654 266.224 81.3209C266.433 79.1721 266.629 76.9374 266.101 74.8133Z" fill="url(#paint10_linear_86_156)"/>
<path d="M263.289 266.997C263.019 268.078 263.007 269.195 262.995 270.313C262.982 271.946 262.97 273.591 262.958 275.224C262.958 275.912 262.97 276.648 263.4 277.176C263.744 277.594 264.296 277.79 264.812 277.962C271.59 280.172 278.871 281.682 285.845 280.184C286.938 279.951 288.043 279.62 288.878 278.883C289.922 277.95 290.351 276.489 290.449 275.089C290.683 271.663 289.209 268.385 288.374 265.057C287.945 263.387 287.675 261.668 287.122 260.035C286.557 258.402 285.661 256.818 284.261 255.812C282.002 254.203 278.92 254.399 276.219 255.075C273.063 255.873 268.937 257.285 266.617 259.704C265.856 260.49 265.671 261.411 265.328 262.417C264.775 264.001 263.719 265.364 263.289 266.997Z" fill="#2F88C0"/>
<path d="M380.267 252.656C379.199 261.828 377.198 270.89 374.337 279.669C374.189 280.123 374.03 280.602 373.698 280.946C373.305 281.376 372.74 281.56 372.188 281.732C358.203 286.054 342.842 285.82 328.992 281.056C327.396 280.504 325.775 279.878 324.473 278.797C324.093 278.478 323.712 278.048 323.724 277.545C323.737 277.299 323.847 277.078 323.995 276.869C324.13 276.673 324.301 276.501 324.473 276.329C329.201 271.737 332.098 265.327 332.43 258.746C332.54 256.327 332.307 253.81 331.067 251.723C329.999 249.906 326.303 248.899 327.592 246.554C328.636 244.65 332.872 243.41 334.775 242.698C337.083 241.839 339.441 241.176 341.835 240.635C344.991 239.923 348.208 239.407 351.4 238.904C356.152 238.167 360.928 237.418 365.742 237.517C368.566 237.578 371.427 237.934 374.005 239.088C376.584 240.242 378.855 242.268 379.862 244.908C380.795 247.364 380.574 250.077 380.267 252.656Z" fill="#DB4646"/>
<path d="M364.379 239.555C361.96 243.594 359.418 247.757 355.501 250.36C354.053 251.33 352.432 252.067 351.069 253.172C349.951 254.08 349.043 255.222 348.183 256.389C347.14 257.825 346.157 259.335 345.458 260.981C344.217 263.94 343.96 267.218 343.309 270.374C342.67 273.48 341.381 278.023 337.894 278.957C334.051 279.988 328.697 279.018 325.137 277.459C324.744 277.287 324.363 277.09 323.995 276.882C324.13 276.685 324.302 276.513 324.473 276.341C329.201 271.749 332.098 265.34 332.43 258.758C332.541 256.339 332.307 253.822 331.067 251.735C329.999 249.918 326.303 248.911 327.592 246.566C328.636 244.663 332.872 243.422 334.775 242.71C337.084 241.851 339.441 241.188 341.835 240.647C343.481 240.647 345.138 240.697 346.784 240.721C352.665 240.783 358.559 240.377 364.379 239.555Z" fill="#C13636"/>
<path d="M182.263 403.314C178.567 408.398 167.713 408.741 158.651 408.729C157.129 408.41 155.459 408.373 153.936 408.41C127.906 409.097 101.888 409.785 75.8571 410.46C74.0153 410.509 72.4191 410.46 70.9702 410.239C66.157 406.065 67.2253 398.575 68.1216 392.362C69.2635 384.43 69.3126 376.068 73.119 369.008C77.0727 361.653 84.6854 356.766 92.7033 354.249C113.773 347.631 140.246 348.417 161.93 351.069C163.624 351.278 165.392 351.523 166.804 352.26C168.266 353.021 169.162 354.2 169.96 355.354C175.903 363.888 179.783 373.109 181.404 382.477C182.325 387.745 185.848 398.403 182.263 403.314Z" fill="#1E1240"/>
<path d="M202.928 302.826C204.18 306.608 204.929 310.562 205.138 314.54C205.347 318.445 205.298 322.975 208.306 325.468C211.216 327.887 215.477 327.15 219.258 326.941C223.335 326.72 227.411 327.285 231.488 327.248C235.564 327.211 239.825 326.499 243.079 324.056C246.455 321.526 248.334 317.475 249.574 313.435C250.692 309.8 253.7 300.628 251.06 297.203C248.31 293.642 240.881 297.878 237.517 298.553C226.11 300.849 214.237 299.818 202.928 302.826Z" fill="#7C7CCE"/>
<path d="M323.724 271.455C328.415 269.588 334.443 271.847 339.49 271.614C344.131 271.393 348.711 272.596 353.205 273.787C360.769 275.789 368.345 277.79 375.908 279.792C377.173 280.123 378.499 280.504 379.383 281.462C380.009 282.149 380.328 283.045 380.623 283.917C382.097 288.166 383.57 292.475 383.791 296.969C384.11 303.6 381.63 310.021 378.843 316.05C373.649 327.285 367.203 337.943 359.676 347.778C357.515 350.59 355.243 353.377 352.456 355.563C348.748 358.485 344.266 360.253 339.772 361.702C331.448 364.391 322.816 366.122 314.098 366.859C314.417 366.196 313.509 365.84 314.073 365.349C316.664 363.089 319.034 354.323 318.052 348.932C316.861 342.412 311.937 337.317 307.246 332.639C306.411 331.804 305.515 330.944 304.373 330.649C303.489 330.428 302.568 330.564 301.672 330.723C286.741 333.363 272.866 339.957 258.611 345.114C231.647 354.851 203.136 359.467 174.834 364.035C167.934 365.152 160.763 368.848 154.071 366.884C151.886 363.347 154.084 355.808 157.632 353.635C161.181 351.462 165.552 351.29 169.714 351.216C175.105 351.118 180.495 351.056 185.873 351.339C189.507 351.535 193.215 351.879 196.764 351.069C199.723 350.393 202.437 348.957 205.101 347.52C213.794 342.879 222.475 338.238 231.168 333.596C232.654 332.811 234.189 331.963 235.159 330.6C237.111 327.887 236.252 324.179 236.006 320.839C235.294 311.053 240.905 301.66 248.42 295.336C255.934 289.013 265.205 285.231 274.303 281.547C277.655 280.185 281.093 278.809 284.703 278.65C291.493 278.331 295.459 279.583 301.758 279.607C305.135 279.62 308.806 277.422 311.875 276.206C315.805 274.598 319.771 273.026 323.724 271.455Z" fill="url(#paint11_linear_86_156)"/>
<path d="M368.504 291.702C366.356 290.928 364.207 290.351 362.07 289.958C358.436 288.718 354.814 288.485 351.253 288.927C348.699 289.099 346.206 289.59 343.738 290.327C344.537 290.044 345.347 289.786 346.17 289.553C346.182 289.553 346.182 289.529 346.17 289.529C344.672 289.909 343.235 290.4 341.823 290.941C333.916 293.716 326.438 298.774 319.341 303.293C317.155 304.68 314.933 305.896 312.698 307.001C309.039 308.536 305.343 309.985 301.574 311.151C295.729 312.944 291.211 314.589 287.294 317.634C285.661 318.788 284.089 320.2 282.567 321.981C279.902 325.1 276.832 326.156 273.014 326.88C271.761 326.855 270.509 326.806 269.343 327.113C268.139 327.445 267.317 328.083 266.69 328.881C263.314 330.158 260.06 331.816 256.954 333.56C247.806 338.741 239.039 344.107 231.083 351.02C230.641 351.4 231.107 352.137 231.635 351.977C236.829 350.467 242.047 349.399 247.241 348.146C247.339 348.49 247.671 348.773 248.076 348.65C250.667 347.827 253.479 346.869 256.303 345.752C272.817 342.818 287.994 336.813 301.341 326.229C309.15 320.041 315.67 311.925 322.84 304.754C324.854 303.281 326.855 301.795 328.93 300.407C330.109 299.658 331.3 298.909 332.504 298.197C343.554 291.886 355.796 289.799 368.345 292.353C368.75 292.451 368.922 291.849 368.504 291.702Z" fill="#7C7CCE"/>
<path d="M321.109 261.165C313.73 261.533 306.277 260.932 298.983 262.098C291.69 263.265 284.273 266.568 280.369 272.842C277.925 276.783 277.09 281.547 277.14 286.189C277.152 286.803 277.176 287.453 277.533 287.957C277.839 288.387 278.331 288.644 278.822 288.829C282.751 290.363 287.257 289.136 290.916 287.036C294.575 284.936 300.653 284.973 304.238 282.763C308.18 280.332 309.715 275.838 314.319 275.334C319.562 274.757 325.529 275.285 329.385 271.675C331.669 269.539 334.296 263.277 332.86 260.121C331.73 257.666 330.736 259.213 328.341 260.011C326.033 260.797 323.528 261.042 321.109 261.165Z" fill="#3A2A6B"/>
<path d="M210.356 325.247C206.808 325.468 203.259 325.689 199.711 325.91C180.986 327.064 162.261 328.218 143.536 329.372C140.762 329.544 137.913 329.728 135.384 330.883C133.038 331.939 131.123 333.756 128.876 334.996C124.529 337.39 119.348 337.476 114.473 338.409C110.544 339.158 106.725 340.484 103.177 342.326C100.844 343.542 98.5355 345.015 95.9202 345.224C95.1712 345.273 94.3608 345.212 93.7469 344.794C92.2243 343.763 92.7155 341.283 94.017 340.006C95.3308 338.716 97.1481 338.102 98.5724 336.936C92.4822 337.427 86.6131 340.337 82.5488 344.892C81.321 346.255 79.6634 347.938 77.9812 347.201C76.2131 346.415 76.4709 343.837 77.134 342.019C77.8584 340.042 78.7302 338.102 80.044 336.457C81.7999 334.259 84.2433 332.737 86.6253 331.263C89.3143 329.606 92.0033 327.936 94.6923 326.278C96.7183 325.038 98.7688 323.773 101.04 323.073C103.373 322.361 105.854 322.288 108.297 322.14C112.423 321.882 116.56 321.404 120.6 320.52C125.057 319.55 129.392 318.088 133.787 316.824C140.958 314.761 148.276 313.226 155.619 311.9C167.246 309.8 178.96 308.216 190.527 305.822C192.282 305.466 194.026 305.098 195.77 304.692C200.128 303.686 206.034 300.456 208.699 305.638C211.437 310.955 210.725 319.464 210.356 325.247Z" fill="#FE6361"/>
<path d="M376.915 229.941C376.976 231.377 376.51 232.802 375.933 234.128C373.281 240.291 368.922 247.487 362.218 245.473C360.83 245.068 359.283 245.35 357.945 245.878C353.905 247.438 351.56 251.256 347.029 251.907C343.038 252.472 339.011 251.109 335.07 250.642C331.227 250.2 327.432 249.574 323.589 249.009C322.595 248.862 321.551 248.702 320.655 248.26C320.348 248.101 320.065 247.916 319.795 247.695C318.506 246.59 318.162 244.552 319.022 243.091C320.065 241.298 322.668 240.267 322.595 238.192C322.533 236.583 320.777 235.11 321.453 233.649C321.968 232.544 323.737 232.151 323.773 230.911C323.786 230.149 323.061 229.572 322.84 228.848C322.325 227.129 324.572 225.84 325.026 224.108C325.48 222.328 324.007 220.707 322.767 219.356C321.526 218.006 320.397 215.943 321.477 214.457C321.846 213.978 322.386 213.659 322.938 213.389C326.769 211.498 331.398 211.081 334.591 208.232C337.01 206.071 338.176 202.879 339.723 200.018C342.621 194.64 347.201 190.048 352.604 187.199C354.224 186.339 356.017 186.057 357.822 186.18C361.186 186.401 364.6 188.071 367.031 190.195C370.051 192.847 372.004 196.69 372.36 200.693C373.182 209.767 366.282 217.932 365.963 227.031C369.032 227.215 372.298 224.71 374.951 226.269C376.203 227.006 376.866 228.504 376.915 229.941Z" fill="#FE6361"/>
<path d="M376.915 229.941C376.976 231.377 376.51 232.802 375.933 234.128C373.28 240.291 368.921 247.487 362.217 245.473C360.83 245.068 359.283 245.35 357.944 245.878C353.905 247.438 351.56 251.256 347.029 251.907C343.038 252.472 339.011 251.109 335.069 250.642C331.226 250.2 327.432 249.574 323.589 249.009C322.594 248.862 321.551 248.702 320.654 248.26C320.974 247.339 321.6 246.468 322.386 245.866C323.994 244.638 326.057 244.208 328.046 243.815C330.772 243.287 333.485 242.759 336.211 242.231C338.532 241.777 341.11 241.151 342.387 239.162C343.615 237.21 343.222 234.496 344.634 232.679C345.629 231.389 347.311 230.862 348.564 229.806C351.326 227.509 351.437 223.372 351.24 219.786C350.97 214.764 350.565 209.742 350.602 204.72C350.639 200.484 350.43 194.308 352.542 190.477C353.524 188.697 355.685 187.273 357.822 186.18C361.186 186.401 364.599 188.071 367.031 190.195C370.051 192.847 372.003 196.69 372.359 200.693C373.182 209.767 366.282 217.932 365.962 227.031C369.032 227.215 372.298 224.71 374.95 226.269C376.203 227.006 376.866 228.504 376.915 229.941Z" fill="#EA5757"/>
<path d="M210.357 325.247C206.808 325.468 203.259 325.689 199.711 325.91C198.913 324.363 198.888 322.361 198.704 320.569C198.225 315.866 196.101 311.36 192.847 307.946C192.123 307.185 191.202 306.559 190.527 305.822C192.282 305.466 194.026 305.098 195.77 304.692C200.128 303.686 206.034 300.456 208.699 305.638C211.437 310.955 210.725 319.464 210.357 325.247Z" fill="#DB4646"/>
<path d="M348.81 137.938C339.11 115.468 349.288 89.7196 348.257 65.273C348.159 62.8664 347.778 60.1406 345.814 58.7408C344.082 57.5007 341.737 57.7462 339.638 58.0286C338.483 58.1883 337.329 58.3602 336.163 58.5443C335.598 54.2591 335.61 49.9494 336.175 45.6027C336.371 44.0434 333.916 44.0556 333.719 45.6027C333.142 50.0844 333.167 54.517 333.744 58.9373C325.922 60.2142 317.966 61.6999 310.157 62.0437C303.661 62.3262 297.89 60.0178 291.567 59.7231C290.143 59.6617 288.878 59.7354 287.724 59.895C287.662 55.487 288.068 47.776 288.092 46.7569C288.117 45.173 285.661 45.173 285.636 46.7569C285.575 51.1404 285.501 55.5238 285.44 59.895C285.44 60.0669 285.428 60.2388 285.428 60.4107C274.647 63.9224 278.232 79.553 280.443 89.867C283.684 104.933 278.011 120.318 276.587 135.654C276.329 138.416 276.243 141.363 277.594 143.782C279.706 147.601 284.715 148.865 289.05 148.325C293.372 147.785 297.412 145.882 301.66 144.899C316.271 141.535 331.509 149.393 346.317 147.036C347.213 146.889 348.134 146.704 348.859 146.164C351.228 144.396 349.988 140.676 348.81 137.938Z" fill="url(#paint12_linear_86_156)"/>
<path d="M340.19 139.509C332.86 142.677 324.756 139.214 316.713 138.06C315.694 137.901 314.663 137.79 313.644 137.741C312.244 160.321 310.365 182.852 307.947 205.334C306.731 216.618 305.577 227.952 303.882 239.174C302.446 248.764 298.689 255.32 291.457 261.718C284.163 268.176 277.361 275.813 269.613 281.67C262.565 286.999 254.056 289.627 245.473 291.211C226.429 294.735 202.682 293.605 189.888 310.918C188.955 312.17 186.819 310.942 187.764 309.678C197.513 296.49 213.831 293.016 229.229 291.039C240.071 289.639 251.453 288.657 261.435 283.807C270.558 279.374 276.563 271.172 284.126 264.726C292.255 257.813 299.278 251.649 301.206 240.623C303.367 228.197 304.41 215.452 305.749 202.916C308.057 181.232 309.837 159.499 311.2 137.729C302.434 138.146 293.532 143.721 285.428 140.369C284.568 124.099 291.358 107.56 287.282 91.7823C285.538 85.0659 281.842 78.3127 283.525 71.584C284.851 67.5935 301.697 68.232 305.294 68.011C314.16 67.4707 323.049 65.7886 331.853 64.6098C332.909 64.4748 334.051 64.3397 334.972 64.8799C335.893 65.4202 336.335 66.4762 336.728 67.4585C337.82 70.2089 338.925 73.082 339.331 75.9798C339.552 77.6251 339.564 79.295 339.196 80.9526C338.655 83.4083 337.354 85.6184 336.47 87.9759C334.959 92.0401 334.751 96.4727 334.554 100.819C334.346 105.497 334.137 110.262 335.205 114.829C337.17 123.179 343.333 131.516 340.19 139.509Z" fill="url(#paint13_linear_86_156)"/>
<path d="M226.11 283.095C224.538 286.103 223.986 289.688 224.833 292.967C224.931 293.372 225.078 293.777 225.373 294.072C225.803 294.501 226.478 294.551 227.08 294.587C232.138 294.858 237.197 295.115 242.256 295.386C243.558 295.459 244.871 295.521 246.148 295.263C247.83 294.919 249.353 294.698 250.826 293.814C252.914 292.574 254.817 290.29 257.076 289.418C262.43 287.355 267.501 284.2 272.854 282.456C277.446 280.958 282.738 282.235 287.06 280.074C287.674 279.767 288.362 279.227 288.227 278.539C288.116 277.975 287.49 277.668 286.938 277.52C284.642 276.906 282.223 277.324 279.853 277.324C276.329 277.311 272.891 276.366 269.404 275.85C265.917 275.335 262.184 275.261 259.065 276.894C257.715 277.594 256.524 278.601 255.099 279.153C253.7 279.694 252.165 279.779 250.667 279.767C245.669 279.718 240.697 278.699 236.08 276.771C235.134 276.378 234.14 275.642 233.096 275.899C232.212 276.12 231.156 277.201 230.469 277.778C228.688 279.251 227.178 281.044 226.11 283.095Z" fill="#4CB4D5"/>
<path d="M315.301 364.182V364.207C315.228 364.281 315.154 364.342 315.08 364.416C312.318 366.933 309.15 368.824 305.749 370.26C304.545 370.776 303.318 371.242 302.053 371.648C296.012 373.6 289.443 374.496 283.119 375.27C261.177 377.959 239.236 380.967 217.282 383.509C196.113 385.965 174.871 386.247 153.715 389.783C152.353 390.016 150.928 390.311 149.528 390.692C148.608 391.416 147.613 392.055 146.618 392.595C144.642 393.675 142.554 394.609 140.884 396.119C139.202 397.629 137.987 399.876 138.38 402.086C138.539 402.983 138.993 403.867 139.767 404.321C140.184 404.567 140.663 404.677 141.13 404.824C142.26 405.18 143.463 405.966 143.512 407.145C143.573 408.545 142.002 409.429 140.627 409.662C137.729 410.153 134.61 409.183 132.498 407.145C130.374 405.095 129.306 402.013 129.686 399.103C130.092 396.119 131.749 393.258 133.272 390.508C131.332 391.699 129.539 393.049 128.532 395.051C127.083 397.936 127.636 401.534 126.126 404.382C125.954 404.726 125.733 405.045 125.438 405.291C124.959 405.659 124.308 405.745 123.707 405.696C121.803 405.524 120.134 403.94 119.863 402.049C119.728 401.141 119.888 400.22 119.986 399.299C120.293 396.475 119.949 393.54 120.932 390.876C121.349 389.734 122 388.69 122.798 387.769C122.7 387.819 122.614 387.855 122.516 387.904C119.79 389.145 116.769 390.716 115.91 393.589C115.505 394.965 115.676 396.463 115.406 397.875C115.136 399.287 114.166 400.785 112.717 400.846C111.575 400.895 110.556 399.974 110.139 398.906C109.709 397.838 109.734 396.647 109.77 395.493C109.856 392.423 110.016 389.132 111.821 386.64C112.754 385.338 114.056 384.356 115.37 383.447C118.943 380.943 124.443 376.891 129.686 374.459C134.61 371.574 140.541 369.745 146.09 368.418C148.694 367.804 151.297 367.203 153.912 366.626C153.961 366.712 153.998 366.785 154.047 366.859C160.751 368.836 167.922 365.128 174.81 364.01C203.124 359.455 231.623 354.838 258.599 345.101C268.962 341.356 279.129 336.838 289.639 333.658C293.593 332.455 297.583 331.435 301.66 330.711C302.556 330.551 303.477 330.404 304.361 330.637C305.503 330.932 306.399 331.791 307.234 332.626C311.925 337.305 316.849 342.412 318.04 348.932C318.985 354.089 317.413 359.308 315.301 364.182Z" fill="#FE6361"/>
<path d="M315.301 364.182V364.207C315.228 364.281 315.154 364.342 315.08 364.416C312.318 366.933 309.15 368.824 305.749 370.26C300.579 370.665 295.373 370.874 290.18 370.899L304.914 361.69C305.675 361.211 306.461 360.732 307.038 360.032C307.664 359.295 308.02 358.35 308.278 357.417C309.985 351.462 308.487 344.684 304.41 340.006C302.581 337.906 300.248 336.249 297.694 335.156C296.405 334.603 295.066 334.198 293.691 333.94C292.979 333.805 290.29 333.977 289.639 333.658C293.593 332.455 297.584 331.435 301.66 330.711C302.556 330.551 303.477 330.404 304.361 330.637C305.503 330.932 306.4 331.791 307.234 332.626C311.925 337.305 316.849 342.412 318.04 348.932C318.985 354.089 317.413 359.308 315.301 364.182Z" fill="#EA5757"/>
<path d="M394.167 401.706C383.742 407.722 371.009 407.599 358.976 407.391C290.99 406.175 222.966 407.354 155.078 410.902C148.46 411.258 139.976 410.423 137.999 404.088C137.839 403.572 137.729 403.044 137.692 402.516C137.373 398.857 139.73 395.137 142.886 393.061C146.496 390.692 150.916 389.992 155.189 389.341C223.679 379.002 292.181 368.652 360.683 358.301C362.672 358.006 364.882 357.675 367.227 357.368C380.537 355.649 398.268 354.887 405.659 366.761C412.67 378.032 404.603 395.677 394.167 401.706Z" fill="url(#paint14_linear_86_156)"/>
<path d="M428.105 199.269C425.465 191.128 419.51 184.142 411.946 180.114C408.864 178.481 405.549 177.327 402.246 176.234C397.666 174.724 393.025 173.312 388.236 172.796C380.697 171.986 373.207 173.668 365.705 174.073C360.192 174.368 354.642 178.101 353.156 183.565C351.4 185.566 350.062 187.801 349.46 190.17C347.226 198.95 350.713 209.153 353.488 217.429C353.488 217.441 353.512 217.441 353.512 217.429C352.014 209.35 351.609 201.295 353.672 193.289C353.746 193.596 353.819 193.915 353.881 194.222C355.416 200.951 356.68 207.741 357.662 214.568C357.847 215.87 358.031 217.208 357.761 218.497C357.356 220.363 356.066 221.886 355.145 223.568C354.225 225.238 353.721 227.448 354.863 228.971C356.901 231.709 361.555 229.609 364.514 231.291C365.619 231.918 366.368 233.023 366.994 234.14C369.327 238.29 370.481 243.103 370.273 247.855C370.211 249.353 370.027 250.9 370.567 252.3C370.899 253.16 371.5 253.896 371.82 254.756C372.827 257.396 371.108 260.22 370.58 262.995C370.101 265.463 370.58 268.029 371.255 270.448C372.421 274.61 374.951 279.19 379.236 279.632C381.79 279.902 384.282 278.527 386.075 276.673C387.856 274.819 389.083 272.523 390.422 270.325C392.841 266.334 395.738 262.589 399.361 259.63C402.713 256.892 406.642 254.866 409.748 251.821C415.298 246.382 417.471 238.45 421.376 231.733C422.862 229.167 424.618 226.773 426.005 224.158C430.02 216.619 430.745 207.41 428.105 199.269Z" fill="url(#paint15_linear_86_156)"/>
<path d="M367.227 357.368C367.043 358.338 366.626 359.283 365.999 360.032C364.194 362.181 361.321 363.089 358.62 363.863C313.717 376.51 266.604 378.425 220.511 385.596C212.161 386.898 203.849 388.371 195.524 389.844C188.439 391.109 181.354 392.362 174.27 393.614C166.387 395.014 158.357 396.463 151.296 400.232C148.951 401.485 146.68 403.007 144.089 403.633C141.916 404.174 139.374 403.903 137.692 402.516C137.373 398.857 139.73 395.137 142.886 393.061C146.496 390.692 150.916 389.992 155.189 389.341C223.679 379.003 292.181 368.652 360.683 358.301C362.672 357.994 364.882 357.675 367.227 357.368Z" fill="#659296"/>
<path d="M340.19 139.509C332.859 142.677 324.756 139.214 316.713 138.06C317.462 135.899 320.348 134.585 322.84 134.143C325.836 133.603 329.471 133.014 330.588 130.177C330.981 129.171 330.956 128.066 330.883 126.985C330.146 116.229 325.001 105.313 328.39 95.0853C329.913 90.5054 332.958 86.7727 335.659 82.8681C336.469 81.6894 337.82 78.6198 339.33 75.9799C339.551 77.6252 339.564 79.2951 339.195 80.9527C338.655 83.4084 337.353 85.6185 336.469 87.976C334.959 92.0402 334.75 96.4728 334.554 100.819C334.345 105.498 334.136 110.262 335.205 114.829C337.169 123.179 343.333 131.516 340.19 139.509Z" fill="#9B1E39"/>
<defs>
<linearGradient id="paint0_linear_86_156" x1="244.458" y1="111.194" x2="244.458" y2="351.853" gradientUnits="userSpaceOnUse">
<stop offset="0.1333" stop-color="#FFE7E7"/>
<stop offset="0.3022" stop-color="#FCDBDB"/>
<stop offset="0.6097" stop-color="#F3BABA"/>
<stop offset="0.8787" stop-color="#EA9898"/>
</linearGradient>
<linearGradient id="paint1_linear_86_156" x1="57.5339" y1="373.167" x2="96.0397" y2="322.384" gradientUnits="userSpaceOnUse">
<stop stop-color="#FFC7C8"/>
<stop offset="0.4789" stop-color="#FFE6E8"/>
<stop offset="0.48" stop-color="#FFB3B3"/>
<stop offset="0.9993" stop-color="#FFB3B3"/>
</linearGradient>
<linearGradient id="paint2_linear_86_156" x1="45.801" y1="241.684" x2="163.465" y2="335.123" gradientUnits="userSpaceOnUse">
<stop stop-color="#FFE6E8"/>
<stop offset="0.9993" stop-color="#FFB3B3"/>
</linearGradient>
<linearGradient id="paint3_linear_86_156" x1="384.528" y1="131.737" x2="384.528" y2="261.61" gradientUnits="userSpaceOnUse">
<stop stop-color="#624CD5"/>
<stop offset="0.9993" stop-color="#2D2796"/>
</linearGradient>
<linearGradient id="paint4_linear_86_156" x1="368.744" y1="129.501" x2="425.533" y2="129.501" gradientUnits="userSpaceOnUse">
<stop stop-color="#D8E7EC"/>
<stop offset="0.3311" stop-color="#D3E2E8"/>
<stop offset="0.7492" stop-color="#C3D6DB"/>
<stop offset="1" stop-color="#B6CBD1"/>
</linearGradient>
<linearGradient id="paint5_linear_86_156" x1="309.584" y1="187.958" x2="317.537" y2="187.958" gradientUnits="userSpaceOnUse">
<stop offset="0.0419" stop-color="#DBEAED"/>
<stop offset="0.3166" stop-color="#D6E5E9"/>
<stop offset="0.6636" stop-color="#C6D7DC"/>
<stop offset="0.9985" stop-color="#B0C4CB"/>
</linearGradient>
<linearGradient id="paint6_linear_86_156" x1="314.068" y1="43.5401" x2="314.068" y2="49.1626" gradientUnits="userSpaceOnUse">
<stop offset="0.0419" stop-color="#DBEAED"/>
<stop offset="0.3166" stop-color="#D6E5E9"/>
<stop offset="0.6636" stop-color="#C6D7DC"/>
<stop offset="0.9985" stop-color="#B0C4CB"/>
</linearGradient>
<linearGradient id="paint7_linear_86_156" x1="461.207" y1="212.396" x2="352.787" y2="365.733" gradientUnits="userSpaceOnUse">
<stop stop-color="#D8E7EC"/>
<stop offset="0.3311" stop-color="#D3E2E8"/>
<stop offset="0.7492" stop-color="#C3D6DB"/>
<stop offset="1" stop-color="#B6CBD1"/>
</linearGradient>
<linearGradient id="paint8_linear_86_156" x1="251.52" y1="232.702" x2="157.223" y2="299.703" gradientUnits="userSpaceOnUse">
<stop stop-color="white"/>
<stop offset="0.9985" stop-color="#D8E7EC"/>
</linearGradient>
<linearGradient id="paint9_linear_86_156" x1="253.439" y1="187.42" x2="144.428" y2="251.442" gradientUnits="userSpaceOnUse">
<stop stop-color="white"/>
<stop offset="0.9985" stop-color="#D8E7EC"/>
</linearGradient>
<linearGradient id="paint10_linear_86_156" x1="243.369" y1="64.3621" x2="218.322" y2="99.0433" gradientUnits="userSpaceOnUse">
<stop stop-color="#3A2A6B"/>
<stop offset="0.2838" stop-color="#352664"/>
<stop offset="0.7034" stop-color="#281A50"/>
<stop offset="0.9924" stop-color="#1D103E"/>
</linearGradient>
<linearGradient id="paint11_linear_86_156" x1="299.687" y1="314.091" x2="210.706" y2="394.73" gradientUnits="userSpaceOnUse">
<stop stop-color="#B5B2FF"/>
<stop offset="0.9985" stop-color="#9494EA"/>
</linearGradient>
<linearGradient id="paint12_linear_86_156" x1="313.313" y1="56.3669" x2="313.313" y2="143.783" gradientUnits="userSpaceOnUse">
<stop offset="0.4017" stop-color="#D8E7EC"/>
<stop offset="0.5993" stop-color="#D3E2E8"/>
<stop offset="0.8488" stop-color="#C3D6DB"/>
<stop offset="0.9985" stop-color="#B6CBD1"/>
</linearGradient>
<linearGradient id="paint13_linear_86_156" x1="264.298" y1="67.4025" x2="264.298" y2="124.593" gradientUnits="userSpaceOnUse">
<stop offset="0.165" stop-color="#EA5757"/>
<stop offset="0.7155" stop-color="#C43847"/>
<stop offset="0.9985" stop-color="#AE273E"/>
</linearGradient>
<linearGradient id="paint14_linear_86_156" x1="270.915" y1="367.787" x2="274.766" y2="407.13" gradientUnits="userSpaceOnUse">
<stop stop-color="#88AEB7"/>
<stop offset="0.1338" stop-color="#8EB2BB"/>
<stop offset="0.9985" stop-color="#AFCCD2"/>
</linearGradient>
<linearGradient id="paint15_linear_86_156" x1="400.86" y1="170.885" x2="374.299" y2="245.035" gradientUnits="userSpaceOnUse">
<stop stop-color="#483889"/>
<stop offset="0.9927" stop-color="#3A2A6B"/>
</linearGradient>
</defs>
</svg>
