<svg width="283" height="283" viewBox="0 0 283 283" fill="none" xmlns="http://www.w3.org/2000/svg">
<g clip-path="url(#clip0_73_15)">
<mask id="mask0_73_15" style="mask-type:luminance" maskUnits="userSpaceOnUse" x="0" y="0" width="329" height="283">
<path d="M329 0H0V283H329V0Z" fill="white"/>
</mask>
<g mask="url(#mask0_73_15)">
<path d="M-7.41455 -5.82985C-7.41455 -5.82985 104.993 -33.7902 132.727 51.1098C160.461 136.01 274.397 201.326 275.585 288.717L-0.962151 289.169C-4.52795 289.169 -7.41455 285.377 -7.41455 280.679V-5.82985Z" fill="#00CEC8"/>
</g>
<path opacity="0.28" d="M13.5839 102.729C13.5839 103.974 12.5651 104.993 11.3199 104.993C10.0747 104.993 9.05591 103.974 9.05591 102.729C9.05591 101.484 10.0747 100.465 11.3199 100.465C12.5651 100.465 13.5839 101.484 13.5839 102.729Z" fill="white"/>
<path d="M63.7881 64.1279C65.4295 64.1279 82.8623 64.1279 82.8623 64.1279" stroke="white" stroke-width="0.9459" stroke-miterlimit="10" stroke-linecap="round" stroke-linejoin="round"/>
<path d="M91.1826 122.652C92.824 122.652 110.257 122.652 110.257 122.652" stroke="white" stroke-width="0.9459" stroke-miterlimit="10" stroke-linecap="round" stroke-linejoin="round"/>
<path d="M152.028 225.211C153.669 225.211 171.102 225.211 171.102 225.211" stroke="white" stroke-width="0.9459" stroke-miterlimit="10" stroke-linecap="round" stroke-linejoin="round"/>
<path opacity="0.28" d="M164.989 206.194C164.989 207.382 164.027 208.288 162.895 208.288C161.706 208.288 160.801 207.326 160.801 206.194C160.801 205.062 161.763 204.1 162.895 204.1C164.083 204.1 164.989 205.005 164.989 206.194Z" fill="white"/>
<path opacity="0.28" d="M204.156 137.311C204.156 138.5 203.194 139.406 202.062 139.406C200.873 139.406 199.968 138.443 199.968 137.311C199.968 136.179 200.93 135.217 202.062 135.217C203.194 135.217 204.156 136.179 204.156 137.311Z" fill="white"/>
<path opacity="0.28" d="M154.122 76.3534C155.278 76.3534 156.216 75.4158 156.216 74.2592C156.216 73.1026 155.278 72.165 154.122 72.165C152.965 72.165 152.028 73.1026 152.028 74.2592C152.028 75.4158 152.965 76.3534 154.122 76.3534Z" fill="white"/>
<path opacity="0.28" d="M46.4687 181.233C46.4687 182.422 45.5065 183.327 44.3745 183.327C43.1859 183.327 42.2803 182.365 42.2803 181.233C42.2803 180.045 43.2425 179.139 44.3745 179.139C45.5065 179.139 46.4687 180.045 46.4687 181.233Z" fill="white"/>
<path d="M116.539 110.483L88.4093 101.088C85.5793 100.125 83.9945 97.0123 84.9567 94.1823L92.4845 71.5423C93.4467 68.7123 96.5597 67.1275 99.3897 68.0897L127.52 77.4853C130.35 78.4475 131.935 81.5605 130.972 84.3905L123.445 107.031C122.539 109.917 119.426 111.445 116.539 110.483Z" fill="#DBE7FF"/>
<path d="M100.465 76.7496C100.012 78.108 98.5406 78.8438 97.1256 78.391C95.7672 77.9382 95.0314 76.4666 95.4842 75.0516C95.937 73.6932 97.4086 72.9574 98.8236 73.4102C100.182 73.863 100.918 75.3346 100.465 76.7496Z" fill="#2F81EC"/>
<path d="M97.2955 86.1451C96.8427 87.5035 95.3711 88.2393 93.9561 87.7865C92.5977 87.3337 91.8619 85.8621 92.3147 84.4471C92.7675 83.0887 94.2391 82.3529 95.6541 82.8057C97.0125 83.3151 97.8049 84.7867 97.2955 86.1451Z" fill="#2F81EC"/>
<path d="M94.1825 95.5972C93.7297 96.9556 92.2581 97.6914 90.8431 97.2386C89.4847 96.7858 88.7489 95.3142 89.2017 93.8992C89.6545 92.5408 91.1261 91.805 92.5411 92.2578C93.9561 92.7106 94.6353 94.1822 94.1825 95.5972Z" fill="#2F81EC"/>
<path d="M113.03 80.9378C112.578 82.2962 111.106 83.032 109.691 82.5792C108.333 82.1264 107.597 80.6548 108.05 79.2398C108.502 77.8814 109.974 77.1456 111.389 77.5984C112.747 78.0512 113.483 79.5228 113.03 80.9378Z" fill="#2F81EC"/>
<path d="M109.861 90.3336C109.408 91.692 107.936 92.4278 106.521 91.975C105.163 91.5222 104.427 90.0506 104.88 88.6356C105.333 87.2772 106.804 86.5414 108.219 86.9942C109.578 87.5036 110.314 88.9752 109.861 90.3336Z" fill="#2F81EC"/>
<path d="M106.748 99.7857C106.295 101.144 104.823 101.88 103.408 101.427C102.05 100.974 101.314 99.5027 101.767 98.0877C102.22 96.7293 103.691 95.9935 105.106 96.4463C106.465 96.8991 107.2 98.3707 106.748 99.7857Z" fill="#2F81EC"/>
<path d="M125.596 85.1263C125.143 86.4847 123.671 87.2205 122.256 86.7677C120.898 86.3149 120.162 84.8433 120.615 83.4283C121.068 82.0699 122.539 81.3341 123.954 81.7869C125.313 82.2397 126.048 83.7113 125.596 85.1263Z" fill="#2F81EC"/>
<path d="M122.426 94.5218C121.973 95.8802 120.501 96.616 119.086 96.1632C117.728 95.7104 116.992 94.2388 117.445 92.8238C117.898 91.4654 119.369 90.7296 120.784 91.1824C122.143 91.6918 122.879 93.1634 122.426 94.5218Z" fill="#2F81EC"/>
<path d="M119.256 103.974C118.803 105.333 117.332 106.068 115.917 105.616C114.558 105.163 113.823 103.691 114.275 102.276C114.728 100.918 116.2 100.182 117.615 100.635C118.973 101.088 119.766 102.559 119.256 103.974Z" fill="#2F81EC"/>
<path d="M104.936 74.7119L96.7295 99.2197" stroke="#2C4482" stroke-width="1.5916" stroke-miterlimit="10" stroke-linecap="round" stroke-linejoin="round"/>
<path d="M118.011 79.0701L109.861 103.578" stroke="#2C4482" stroke-width="1.5916" stroke-miterlimit="10" stroke-linecap="round" stroke-linejoin="round"/>
<path fill-rule="evenodd" clip-rule="evenodd" d="M129.388 186.214H179.988C186.158 186.214 191.195 181.233 191.195 175.007V158.48C191.195 152.311 186.214 147.273 179.988 147.273H129.388C123.218 147.273 118.181 152.254 118.181 158.48V175.064C118.238 181.233 123.218 186.214 129.388 186.214Z" fill="#A1BFFF"/>
<path fill-rule="evenodd" clip-rule="evenodd" d="M93.956 168.724C93.5032 167.479 93.2768 166.121 93.2768 164.706V146.707C93.2768 139.972 98.7104 134.538 105.446 134.538H166.744C173.479 134.538 178.913 139.972 178.913 146.707V164.706C178.913 171.441 173.479 176.875 166.744 176.875H105.446L94.6352 182.761C92.9938 183.667 91.0694 182.252 91.4656 180.384L93.956 168.724Z" fill="#F0F5FF"/>
<path d="M170.026 149.99H100.748" stroke="#223A7A" stroke-width="1.7967" stroke-miterlimit="10" stroke-linecap="round"/>
<path d="M170.026 160.914H121.52" stroke="#223A7A" stroke-width="1.7967" stroke-miterlimit="10" stroke-linecap="round"/>
<path d="M172.454 127.548C180.501 126.204 185.934 118.59 184.59 110.543C183.245 102.497 175.632 97.0632 167.585 98.4078C159.538 99.7523 154.105 107.366 155.449 115.413C156.794 123.459 164.407 128.893 172.454 127.548Z" fill="#63FFF5"/>
<path d="M164.14 111.842L169.291 119.369L175.97 106.578" stroke="#FCFEFF" stroke-width="3.9635" stroke-miterlimit="10" stroke-linecap="round" stroke-linejoin="round"/>
<path d="M198.836 207.043C196.232 209.137 192.383 208.684 190.289 206.081C188.195 203.477 188.648 199.628 191.251 197.534C193.855 195.44 197.704 195.893 199.798 198.496C201.892 201.156 201.439 204.949 198.836 207.043Z" fill="white"/>
<path d="M198.836 207.043C196.232 209.137 192.383 208.684 190.289 206.081L199.798 198.553C201.892 201.156 201.439 204.949 198.836 207.043Z" fill="#FFAC61"/>
<path d="M55.8641 82.0701C53.7699 83.0889 51.2795 82.2399 50.2607 80.1457L46.5251 72.4481C45.5063 70.3539 46.3553 67.8635 48.4495 66.8447C50.5437 65.8259 53.0341 66.6749 54.0529 68.7691L57.7885 76.4101C58.8073 78.5043 57.9583 81.0513 55.8641 82.0701Z" fill="#2651DE"/>
<path d="M48.2797 76.0705L46.5251 72.4481C45.5063 70.3539 46.3553 67.8635 48.4495 66.8447C50.5437 65.8259 53.0341 66.6749 54.0529 68.7691L55.8075 72.3915L48.2797 76.0705Z" fill="white"/>
<path d="M221.872 218.589L149.65 241.003L163.234 282.887H243.72L221.872 218.589Z" fill="#F0F5FF"/>
<path d="M216.891 230.419L173.705 243.606L172.007 239.588L215.533 226.287L216.891 230.419Z" fill="#A1BFFF"/>
<path d="M219.325 238.399L179.139 250.625L178.233 248.248L218.533 235.965L219.325 238.399Z" fill="#A1BFFF"/>
<path d="M170.196 254.417L172.404 246.55L170.31 247.285L169.291 251.304C169.121 252.04 168.951 252.662 168.781 253.568L168.668 253.625C168.612 253.568 168.612 253.568 168.555 253.511L168.781 253.455L164.876 250.625L163.687 249.663L163.631 249.719L163.065 249.266C165.046 248.078 166.065 246.323 165.385 244.342C164.536 241.682 161.933 241.569 158.763 242.701L153.896 244.455L158.027 257.304L160.008 256.568L158.254 251.134L161.084 250.115L165.951 253.738L167.763 255.096L165.385 263.416L167.48 262.681L168.612 258.379C168.781 257.587 169.008 256.794 169.178 255.889L169.291 255.832C170.027 256.455 170.706 256.907 171.272 257.417L174.668 260.077L176.875 259.285L170.196 254.417ZM160.405 248.983L157.801 249.946L156.273 245.135L158.876 244.172C161.31 243.267 162.838 243.437 163.404 245.078C163.914 246.776 162.838 248.134 160.405 248.983Z" fill="#2D69ED"/>
<path opacity="0.73" d="M147.386 282.887H59.5999V214.627C59.5999 205.628 66.9013 198.383 75.9007 198.383H131.199C140.198 198.383 147.443 205.684 147.443 214.684L147.386 282.887Z" fill="#3171FF"/>
<path d="M138.274 282.887H50.4307V214.684C50.4307 205.684 57.7321 198.44 66.7315 198.44H122.03C131.029 198.44 138.274 205.741 138.274 214.74V282.887Z" fill="#F0F5FF"/>
<path d="M130.633 282.887H58.0151V210.722H130.633V282.887Z" fill="#4D85FF"/>
<path d="M130.633 210.835H58.0151V223.627H130.633V210.835Z" fill="#223A7A"/>
<path d="M63.0525 213.948H69.7313" stroke="white" stroke-width="1.2752" stroke-miterlimit="10" stroke-linecap="round" stroke-linejoin="round"/>
<path d="M63.0525 217.287H69.7313" stroke="white" stroke-width="1.2752" stroke-miterlimit="10" stroke-linecap="round" stroke-linejoin="round"/>
<path d="M63.0525 220.57L69.7313 220.627" stroke="white" stroke-width="1.2752" stroke-miterlimit="10" stroke-linecap="round" stroke-linejoin="round"/>
<path d="M88.9818 248.897C92.1497 241.787 88.9544 233.456 81.8449 230.288C74.7354 227.12 66.4039 230.315 63.236 237.425C60.0681 244.534 63.2634 252.866 70.3729 256.034C77.4824 259.202 85.8139 256.006 88.9818 248.897Z" fill="#63FFF5"/>
<path d="M76.1272 250.851C74.882 250.851 73.8066 249.833 73.8066 248.531V237.72C73.8066 236.475 74.8254 235.4 76.1272 235.4C77.3724 235.4 78.4478 236.418 78.4478 237.72V248.531C78.3912 249.833 77.3724 250.851 76.1272 250.851Z" fill="white"/>
<path d="M68.4297 243.154C68.4297 241.909 69.4485 240.833 70.7503 240.833H81.5609C82.8061 240.833 83.8815 241.852 83.8815 243.154C83.8815 244.399 82.8627 245.474 81.5609 245.474H70.7503C69.4485 245.474 68.4297 244.399 68.4297 243.154Z" fill="white"/>
<path d="M92.7676 243.097H123.558" stroke="white" stroke-width="1.247" stroke-miterlimit="10" stroke-linecap="round"/>
<path d="M92.7676 233.079H123.558" stroke="white" stroke-width="1.247" stroke-miterlimit="10" stroke-linecap="round"/>
<path d="M92.7676 252.04H114.332" stroke="white" stroke-width="1.247" stroke-miterlimit="10" stroke-linecap="round"/>
<path d="M81.1646 203.873H108.163" stroke="#223A7A" stroke-width="2.1314" stroke-miterlimit="10" stroke-linecap="round"/>
<path d="M60.7886 128.256L56.8832 129.048C54.0532 129.614 51.2798 127.803 50.7138 124.973L47.8838 111.049C47.3178 108.219 49.129 105.446 51.959 104.88L55.8644 104.087C58.6944 103.521 61.4678 105.333 62.0338 108.163L64.8638 122.086C65.4298 124.916 63.6186 127.69 60.7886 128.256Z" fill="#F0F5FF"/>
<path d="M62.8261 107.993L47.0913 111.219C45.7895 111.502 44.5443 110.653 44.3179 109.351L43.9783 107.597C43.6953 106.295 44.5443 105.05 45.8461 104.823L61.5809 101.597C62.8827 101.314 64.1279 102.163 64.3543 103.465L64.6939 105.219C64.9203 106.465 64.0713 107.71 62.8261 107.993Z" fill="#2B41E3"/>
<path d="M73.7499 161.593L59.2037 164.706C55.5813 165.498 51.9589 163.121 51.1665 159.499L43.6953 124.576C42.9029 120.954 45.2801 117.332 48.9025 116.539L63.4487 113.426C67.0711 112.634 70.6935 115.011 71.4859 118.633L78.9571 153.556C79.7495 157.178 77.3723 160.8 73.7499 161.593Z" fill="#F0F5FF"/>
<path d="M73.8752 129.718L46.0403 135.691L51.1464 159.486L78.9813 153.513L73.8752 129.718Z" fill="#F6F7FA"/>
<path d="M60.546 137.31L46.6562 140.29L49.2093 152.188L63.0991 149.207L60.546 137.31Z" fill="#FFAC61"/>
<path d="M62.543 111.329L48.5425 114.333L49.1362 117.1L63.1367 114.096L62.543 111.329Z" fill="#F0F5FF"/>
<path d="M78.4162 150.929L50.5813 156.902L51.1394 159.503L78.9743 153.53L78.4162 150.929Z" fill="#FFAC61"/>
<path d="M73.6084 128.457L45.7734 134.43L46.3315 137.031L74.1665 131.058L73.6084 128.457Z" fill="#FFAC61"/>
<path d="M49.2987 132.84C49.8647 132.727 50.2609 132.161 50.1477 131.595L48.3365 122.709C48.2233 122.143 47.6573 121.746 47.0913 121.86C46.5253 121.973 46.1291 122.539 46.2423 123.105L48.0535 131.991C48.1667 132.557 48.6761 132.953 49.2987 132.84Z" fill="white"/>
<path d="M46.7518 120.218C47.148 120.501 47.6574 120.388 47.9404 119.992L48.6196 119.03C48.9026 118.633 48.7894 118.124 48.3932 117.841C47.997 117.558 47.4876 117.671 47.2046 118.067L46.5254 119.03C46.2424 119.426 46.3556 119.992 46.7518 120.218Z" fill="#F6F7FA"/>
</g>
<defs>
<clipPath id="clip0_73_15">
<rect width="283" height="283" fill="white"/>
</clipPath>
</defs>
</svg>
