<svg width="877" height="876" viewBox="0 0 877 876" fill="none" xmlns="http://www.w3.org/2000/svg">
<path d="M869.89 349.648H564.144C562.259 349.646 560.452 348.857 559.119 347.455C557.786 346.053 557.036 344.152 557.034 342.169V143.222C557.036 141.239 557.786 139.338 559.119 137.936C560.452 136.534 562.259 135.745 564.144 135.743H869.89C871.775 135.745 873.582 136.534 874.915 137.936C876.248 139.338 876.998 141.239 877 143.222V342.169C876.998 344.152 876.248 346.053 874.915 347.455C873.582 348.857 871.775 349.646 869.89 349.648Z" fill="#ED2E2C"/>
<path d="M869.89 349.648H564.144C562.259 349.646 560.452 348.857 559.119 347.455C557.786 346.053 557.036 344.152 557.034 342.169V143.222C557.036 141.239 557.786 139.338 559.119 137.936C560.452 136.534 562.259 135.745 564.144 135.743H869.89C871.775 135.745 873.582 136.534 874.915 137.936C876.248 139.338 876.998 141.239 877 143.222V342.169C876.998 344.152 876.248 346.053 874.915 347.455C873.582 348.857 871.775 349.646 869.89 349.648ZM564.144 138.735C563.013 138.736 561.929 139.209 561.129 140.051C560.329 140.892 559.879 142.033 559.878 143.222V342.169C559.879 343.359 560.329 344.5 561.129 345.341C561.929 346.182 563.013 346.655 564.144 346.657H869.89C871.021 346.655 872.105 346.182 872.905 345.341C873.705 344.5 874.155 343.359 874.156 342.169V143.222C874.155 142.033 873.705 140.892 872.905 140.051C872.105 139.209 871.021 138.736 869.89 138.735H564.144Z" fill="#ED2E2C"/>
<path d="M809.451 202.186H624.582C622.885 202.186 621.257 201.476 620.057 200.214C618.857 198.952 618.183 197.239 618.183 195.454C618.183 193.669 618.857 191.957 620.057 190.694C621.257 189.432 622.885 188.723 624.582 188.723H809.451C811.149 188.723 812.776 189.432 813.976 190.694C815.177 191.957 815.851 193.669 815.851 195.454C815.851 197.239 815.177 198.952 813.976 200.214C812.776 201.476 811.149 202.186 809.451 202.186Z" fill="#CCCCCC"/>
<path d="M821.811 254.02H636.942C635.245 254.02 633.617 253.311 632.417 252.049C631.217 250.786 630.543 249.074 630.543 247.289C630.543 245.504 631.217 243.791 632.417 242.529C633.617 241.267 635.245 240.557 636.942 240.557H821.811C823.509 240.557 825.136 241.267 826.336 242.529C827.536 243.791 828.211 245.504 828.211 247.289C828.211 249.074 827.536 250.786 826.336 252.049C825.136 253.311 823.509 254.02 821.811 254.02Z" fill="#CCCCCC"/>
<path d="M805.342 327.542C817.972 327.542 828.211 316.772 828.211 303.487C828.211 290.201 817.972 279.431 805.342 279.431C792.711 279.431 782.472 290.201 782.472 303.487C782.472 316.772 792.711 327.542 805.342 327.542Z" fill="#6C63FF"/>
<path d="M805.97 292.154V289.862H806.615V292.154C807.528 292.196 808.424 292.427 809.252 292.833C809.853 293.13 810.371 293.584 810.757 294.152C811.114 294.678 811.304 295.308 811.302 295.954C811.316 296.426 811.165 296.887 810.879 297.251C810.756 297.416 810.598 297.55 810.418 297.642C810.238 297.733 810.04 297.78 809.84 297.779C809.691 297.782 809.543 297.752 809.404 297.693C809.266 297.633 809.141 297.544 809.037 297.432C808.929 297.32 808.844 297.186 808.788 297.038C808.731 296.89 808.704 296.732 808.708 296.572C808.708 296.349 808.752 296.128 808.837 295.924L809.095 295.351C809.186 295.111 809.23 294.855 809.224 294.597C809.231 294.198 809.11 293.807 808.88 293.489C808.628 293.155 808.289 292.906 807.905 292.773C807.487 292.628 807.054 292.537 806.615 292.501V300.749L806.758 300.839C808.106 301.589 809.33 302.562 810.385 303.719C810.852 304.301 811.223 304.961 811.481 305.672C811.739 306.361 811.873 307.095 811.876 307.835C811.887 308.794 811.65 309.738 811.188 310.565C810.736 311.372 810.075 312.026 809.281 312.449C808.444 312.881 807.542 313.157 806.615 313.264V315.721H805.97V313.309C805.034 313.301 804.109 313.101 803.246 312.721C802.385 312.384 801.626 311.811 801.046 311.062C800.536 310.391 800.26 309.555 800.265 308.695C800.247 308.091 800.423 307.498 800.766 307.014C800.902 306.804 801.084 306.633 801.296 306.514C801.508 306.394 801.744 306.33 801.985 306.328C802.129 306.322 802.273 306.348 802.407 306.404C802.541 306.459 802.663 306.543 802.766 306.651C802.868 306.758 802.948 306.886 803.001 307.027C803.054 307.168 803.079 307.319 803.074 307.471C803.026 307.935 802.84 308.372 802.544 308.72C802.389 308.935 802.257 309.167 802.15 309.412C802.076 309.603 802.04 309.808 802.042 310.014C802.045 310.563 802.224 311.096 802.551 311.525C802.908 312.006 803.381 312.377 803.92 312.601C804.536 312.854 805.194 312.976 805.855 312.962H805.97V303.116L805.153 302.619C804.379 302.146 803.789 301.754 803.382 301.442C802.985 301.14 802.618 300.796 802.286 300.417C801.462 299.494 801.006 298.275 801.01 297.009C801.006 296.222 801.194 295.446 801.555 294.756C801.909 294.067 802.428 293.487 803.06 293.074C803.941 292.515 804.942 292.199 805.97 292.154ZM805.97 292.486C805.414 292.504 804.867 292.632 804.357 292.862C803.847 293.128 803.428 293.554 803.158 294.081C802.851 294.655 802.693 295.304 802.701 295.962C802.695 296.765 802.93 297.55 803.372 298.205C803.606 298.561 803.887 298.88 804.207 299.153C804.725 299.559 805.266 299.931 805.827 300.266L805.97 300.357V292.486ZM806.615 312.932C806.984 312.899 807.349 312.818 807.699 312.691C807.984 312.575 808.249 312.412 808.484 312.208C808.927 311.812 809.27 311.307 809.483 310.738C809.732 310.11 809.859 309.436 809.854 308.755C809.798 307.663 809.468 306.606 808.899 305.69C808.331 304.774 807.543 304.032 806.615 303.538V312.932Z" fill="white"/>
<path d="M454.032 297.625C451.369 297.423 448.695 297.837 446.2 298.839C443.705 299.841 441.45 301.406 439.592 303.424C437.734 305.442 436.32 307.864 435.448 310.52C434.577 313.175 434.269 315.999 434.547 318.793L375.769 347.778L404.538 366.308L455.945 335.942C460.376 335.139 464.373 332.655 467.179 328.959C469.985 325.263 471.404 320.613 471.168 315.89C470.933 311.167 469.058 306.699 465.9 303.333C462.742 299.967 458.519 297.936 454.032 297.625Z" fill="#FFB6B6"/>
<path d="M210.805 855.302L231.105 855.3L240.763 772.94L210.802 772.942L210.805 855.302Z" fill="#FFB6B6"/>
<path d="M205.628 848.331L245.605 848.329H245.607C252.363 848.329 258.843 851.153 263.621 856.178C268.398 861.204 271.083 868.019 271.083 875.127V875.997L205.629 876L205.628 848.331Z" fill="#2F2E41"/>
<path d="M314.388 855.302L334.687 855.3L344.345 772.94L314.384 772.942L314.388 855.302Z" fill="#FFB6B6"/>
<path d="M309.21 848.331L349.187 848.329H349.189C355.946 848.329 362.425 851.153 367.203 856.178C371.981 861.204 374.665 868.019 374.665 875.127V875.997L309.211 876L309.21 848.331Z" fill="#2F2E41"/>
<path d="M327.947 428.122L338.25 451.454L356.825 660.117L342.386 839.467H308.616L268.768 556.77L250.051 832.954L204.485 831.02L195.738 456.575L327.947 428.122Z" fill="#2F2E41"/>
<path d="M163.759 235.565L206.475 217.285L266.767 220.841L320.368 241.388L338.251 451.454C291.62 478.239 244.384 485.55 196.326 466.398L151.724 329.576L163.759 235.565Z" fill="black"/>
<path d="M303.691 246.941L322.647 241.388C322.647 241.388 336.984 231.582 341.702 260.731C346.419 289.881 370.691 335.221 370.691 335.221L412.243 311.928L431.481 356.12L365.861 397.931L296.757 324.691L303.691 246.941Z" fill="black"/>
<path d="M199.715 178.365C197.413 172.87 196.163 166.953 196.035 160.95C195.907 154.947 196.905 148.977 198.97 143.38C201.036 137.783 204.13 132.668 208.075 128.328C212.019 123.989 216.738 120.509 221.962 118.088C227.185 115.666 232.811 114.351 238.517 114.216C244.224 114.082 249.9 115.131 255.221 117.304C260.543 119.477 265.405 122.731 269.531 126.881C273.656 131.03 276.964 135.994 279.266 141.488L279.515 142.093C284.089 153.226 284.27 165.815 280.02 177.089C277.916 182.671 274.787 187.763 270.811 192.074C266.836 196.384 262.093 199.829 256.852 202.211C246.268 207.022 234.3 207.213 223.582 202.742C212.863 198.272 204.273 189.506 199.699 178.372L199.715 178.365Z" fill="#FFB6B6"/>
<path d="M258.727 136.519C267.765 138.244 281.752 144.23 289.514 137.208C285.681 132.496 280.859 128.786 275.429 126.37C274.359 125.997 273.369 125.408 272.513 124.637C269.866 121.824 271.911 116.976 270.7 113.173C270.112 111.783 269.225 110.555 268.109 109.588C266.993 108.62 265.679 107.938 264.27 107.595C261.575 106.747 258.752 106.61 256.106 105.582C249.842 103.105 245.39 96.0197 238.97 94.0942C233.376 92.3923 227.748 95.0373 222.92 98.124C218.093 101.211 213.318 104.873 207.67 105.459C203.45 105.864 200.778 113.166 196.541 113.38C187.663 113.834 188.156 107.679 187.499 117.49C187.12 123.344 179.167 134.992 179.296 140.897C179.428 144.767 178.777 148.599 178.882 152.481C179.121 159.874 181.94 166.915 186.8 172.261C190.843 176.633 196.1 179.583 199.503 184.566C201.272 187.212 202.5 190.301 204.559 192.695C206.619 195.089 210.108 196.529 212.407 194.82C214.706 193.111 214.749 189.412 215.889 186.597C216.589 184.872 217.784 183.419 219.308 182.444C220.831 181.468 222.606 181.019 224.385 181.157C226.232 181.411 227.976 182.203 229.419 183.442C230.862 184.681 231.948 186.319 232.554 188.172C231.478 181.952 228.64 176.124 227.561 169.899C226.483 163.674 227.888 156.237 232.984 153.807C235.172 152.736 238.128 152.448 239.007 149.981C239.545 148.494 239.053 146.738 239.26 145.13C240.38 137.252 252.834 135.303 258.727 136.519Z" fill="#2F2E41"/>
<path d="M201.447 463.969C201.058 461.19 200.094 458.534 198.623 456.189C197.152 453.845 195.211 451.868 192.935 450.398C190.659 448.927 188.105 448 185.451 447.681C182.798 447.361 180.11 447.658 177.578 448.549L137.934 394.476L126.975 428.036L166.301 474.24C168.007 478.616 171.179 482.181 175.217 484.261C179.256 486.341 183.879 486.791 188.211 485.525C192.543 484.259 196.283 481.365 198.723 477.392C201.163 473.419 202.132 468.643 201.447 463.969Z" fill="#FFB6B6"/>
<path d="M177.452 245.764L163.759 235.565C163.759 235.565 132.433 233.677 127.876 260.731L70.4355 360.125L141.654 463.474L176.183 425.242L132.615 371.687L169.195 301.039L177.452 245.764Z" fill="black"/>
<path d="M511.057 261.513H510.339V240.813C510.339 239.24 510.044 237.682 509.472 236.228C508.899 234.775 508.06 233.454 507.003 232.342C505.945 231.229 504.689 230.347 503.308 229.744C501.926 229.142 500.445 228.833 498.949 228.833H457.256C455.76 228.833 454.279 229.142 452.897 229.744C451.515 230.347 450.26 231.229 449.202 232.342C448.144 233.454 447.305 234.775 446.733 236.228C446.161 237.682 445.866 239.24 445.866 240.813V354.375C445.866 355.949 446.161 357.507 446.733 358.96C447.305 360.414 448.144 361.734 449.202 362.847C450.26 363.959 451.515 364.842 452.897 365.444C454.279 366.046 455.76 366.356 457.256 366.356H498.949C500.445 366.356 501.926 366.046 503.308 365.444C504.689 364.842 505.945 363.959 507.003 362.847C508.06 361.734 508.899 360.414 509.472 358.96C510.044 357.507 510.339 355.949 510.339 354.375V276.248H511.057V261.513Z" fill="#3F3D56"/>
<path d="M499.408 231.949H493.966C494.216 232.595 494.312 233.295 494.244 233.988C494.177 234.682 493.948 235.347 493.578 235.926C493.209 236.504 492.709 236.978 492.124 237.306C491.54 237.634 490.887 237.805 490.224 237.805H466.339C465.676 237.805 465.024 237.634 464.439 237.306C463.854 236.978 463.355 236.504 462.985 235.926C462.616 235.347 462.387 234.682 462.319 233.988C462.252 233.295 462.347 232.595 462.597 231.949H457.514C455.258 231.949 453.095 232.892 451.5 234.57C449.905 236.248 449.009 238.523 449.009 240.896V354.292C449.009 356.665 449.905 358.941 451.5 360.618C453.095 362.296 455.258 363.239 457.514 363.239H499.408C501.664 363.239 503.828 362.296 505.423 360.618C507.018 358.941 507.914 356.665 507.914 354.292V240.896C507.914 238.523 507.018 236.248 505.423 234.57C503.828 232.892 501.664 231.949 499.408 231.949Z" fill="#6C63FF"/>
<path d="M657.531 213.905H351.785C349.9 213.903 348.093 213.114 346.76 211.712C345.427 210.31 344.677 208.409 344.675 206.426V7.47922C344.677 5.49631 345.427 3.59525 346.76 2.19311C348.093 0.790983 349.9 0.00226931 351.785 0H657.531C659.416 0.00226932 661.223 0.790982 662.556 2.19311C663.889 3.59525 664.639 5.49631 664.641 7.47922V206.426C664.639 208.409 663.889 210.31 662.556 211.712C661.223 213.114 659.416 213.903 657.531 213.905Z" fill="#FF0000"/>
<path d="M657.531 213.905H351.785C349.9 213.903 348.093 213.114 346.76 211.712C345.427 210.31 344.677 208.409 344.675 206.426V7.47922C344.677 5.49631 345.427 3.59525 346.76 2.19311C348.093 0.790983 349.9 0.00226931 351.785 0H657.531C659.416 0.00226932 661.223 0.790982 662.556 2.19311C663.889 3.59525 664.639 5.49631 664.641 7.47922V206.426C664.639 208.409 663.889 210.31 662.556 211.712C661.223 213.114 659.416 213.903 657.531 213.905ZM351.785 2.99168C350.654 2.99298 349.57 3.4662 348.77 4.30749C347.97 5.14879 347.52 6.28945 347.519 7.47922V206.426C347.52 207.616 347.97 208.756 348.77 209.598C349.57 210.439 350.654 210.912 351.785 210.914H657.531C658.662 210.912 659.746 210.439 660.546 209.598C661.346 208.756 661.796 207.616 661.797 206.426V7.47922C661.796 6.28945 661.346 5.14879 660.546 4.30749C659.746 3.4662 658.662 2.99298 657.531 2.99168H351.785Z" fill="#F47C7B"/>
<path d="M597.092 66.4424H412.223C410.526 66.4424 408.898 65.7332 407.698 64.4709C406.498 63.2085 405.824 61.4964 405.824 59.7111C405.824 57.9258 406.498 56.2137 407.698 54.9514C408.898 53.689 410.526 52.9798 412.223 52.9798H597.092C598.79 52.9798 600.417 53.689 601.618 54.9514C602.818 56.2137 603.492 57.9258 603.492 59.7111C603.492 61.4964 602.818 63.2085 601.618 64.4709C600.417 65.7332 598.79 66.4424 597.092 66.4424Z" fill="#CCCCCC"/>
<path d="M597.092 112.814H412.223C410.526 112.814 408.898 112.105 407.698 110.842C406.498 109.58 405.824 107.868 405.824 106.083C405.824 104.297 406.498 102.585 407.698 101.323C408.898 100.06 410.526 99.3512 412.223 99.3512H597.092C598.79 99.3512 600.417 100.06 601.618 101.323C602.818 102.585 603.492 104.297 603.492 106.083C603.492 107.868 602.818 109.58 601.618 110.842C600.417 112.105 598.79 112.814 597.092 112.814Z" fill="#CCCCCC"/>
<path d="M580.623 186.336C593.253 186.336 603.492 175.566 603.492 162.28C603.492 148.995 593.253 138.224 580.623 138.224C567.992 138.224 557.753 148.995 557.753 162.28C557.753 175.566 567.992 186.336 580.623 186.336Z" fill="#6C63FF"/>
<path d="M581.251 150.948V148.656H581.896V150.948C582.809 150.99 583.705 151.22 584.533 151.627C585.134 151.924 585.653 152.378 586.039 152.946C586.395 153.472 586.586 154.102 586.583 154.748C586.597 155.22 586.446 155.681 586.16 156.045C586.037 156.21 585.879 156.344 585.699 156.435C585.519 156.527 585.321 156.574 585.121 156.572C584.972 156.575 584.824 156.546 584.686 156.486C584.547 156.427 584.423 156.338 584.318 156.225C584.211 156.114 584.126 155.979 584.069 155.832C584.012 155.684 583.985 155.525 583.989 155.366C583.989 155.143 584.033 154.922 584.118 154.718L584.376 154.145C584.467 153.905 584.511 153.649 584.505 153.391C584.512 152.991 584.391 152.601 584.161 152.283C583.909 151.949 583.57 151.7 583.186 151.566C582.768 151.422 582.335 151.331 581.896 151.295V159.542L582.039 159.633C583.387 160.383 584.611 161.355 585.666 162.513C586.133 163.094 586.504 163.755 586.763 164.466C587.02 165.155 587.154 165.889 587.157 166.629C587.169 167.588 586.931 168.532 586.469 169.358C586.017 170.165 585.356 170.819 584.562 171.243C583.725 171.675 582.823 171.95 581.896 172.057V174.515H581.251V172.103C580.315 172.095 579.39 171.895 578.527 171.515C577.667 171.178 576.907 170.605 576.327 169.856C575.817 169.184 575.541 168.349 575.546 167.489C575.528 166.885 575.705 166.292 576.048 165.807C576.183 165.598 576.365 165.427 576.577 165.307C576.789 165.188 577.025 165.124 577.266 165.121C577.41 165.116 577.554 165.142 577.688 165.198C577.823 165.253 577.945 165.337 578.047 165.444C578.149 165.552 578.229 165.68 578.282 165.821C578.335 165.962 578.36 166.113 578.355 166.265C578.307 166.729 578.121 167.166 577.825 167.514C577.671 167.729 577.538 167.961 577.431 168.206C577.357 168.397 577.321 168.601 577.323 168.807C577.326 169.357 577.505 169.89 577.832 170.319C578.189 170.799 578.662 171.171 579.201 171.394C579.817 171.647 580.475 171.77 581.136 171.756H581.251V161.91L580.434 161.412C579.66 160.94 579.07 160.548 578.664 160.236C578.267 159.933 577.899 159.59 577.567 159.211C576.743 158.288 576.287 157.069 576.291 155.803C576.287 155.015 576.475 154.239 576.836 153.549C577.19 152.86 577.709 152.281 578.341 151.868C579.222 151.309 580.223 150.993 581.251 150.948ZM581.251 151.28C580.696 151.298 580.149 151.426 579.638 151.656C579.128 151.922 578.709 152.348 578.439 152.875C578.132 153.449 577.974 154.098 577.983 154.756C577.977 155.559 578.211 156.344 578.653 156.998C578.887 157.355 579.168 157.674 579.488 157.947C580.006 158.353 580.547 158.725 581.108 159.06L581.251 159.151V151.28ZM581.896 171.726C582.266 171.693 582.63 171.612 582.98 171.484C583.265 171.369 583.53 171.206 583.765 171.002C584.208 170.605 584.551 170.101 584.764 169.532C585.014 168.904 585.14 168.23 585.136 167.549C585.079 166.457 584.749 165.4 584.181 164.484C583.612 163.568 582.824 162.826 581.896 162.332V171.726Z" fill="white"/>
<path d="M628.896 874.598H1.64633C1.20969 874.598 0.790942 874.417 0.482196 874.095C0.17345 873.773 0 873.336 0 872.88C0 872.424 0.17345 871.987 0.482196 871.665C0.790942 871.343 1.20969 871.162 1.64633 871.162H628.896C629.333 871.162 629.752 871.343 630.06 871.665C630.369 871.987 630.543 872.424 630.543 872.88C630.543 873.336 630.369 873.773 630.06 874.095C629.752 874.417 629.333 874.598 628.896 874.598Z" fill="#CACACA"/>
</svg>
